<svg xmlns="http://www.w3.org/2000/svg" width="27" height="43" viewBox="0 0 308 512">
<path fill="red" d="M153 512h2l38.26-72c26.98-52.28 53.06-104.86 76.16-159 10.75-25.19 22.51-54.75 30-81 3.52-12.33 8.43-31.39 8.58-44 .27-23.21-3.25-43.55-12.43-65-7.78-18.2-18.63-33.06-32.57-47-20.42-20.41-43.1-32.9-71-39.87C184.66 2.29 173.47.09 166 0h-22C107.76.06 69.14 19.85 44 45 33.62 55.38 25.32 66.06 18.31 79 5.03 103.49-.32 128.32 0 156c.15 12.61 5.06 31.67 8.58 44 7.44 26.07 19.32 55.96 30 81 23.1 54.14 49.18 106.72 76.16 159L153 512zm2-479.43l13 .6c14.38 1.39 33.84 7.79 46 15.52 17.57 11.18 30.74 24.14 41.13 42.31 8.66 15.15 13.23 32.67 13.91 50 1.4 35.66-10.02 65.08-36.04 89.96-9.6 9.18-22.6 17.43-35 22.23-13.82 5.35-28.17 8.24-43 8.24s-29.18-2.89-43-8.24c-12.4-4.8-25.4-13.05-35-22.23-26.02-24.88-37.44-54.3-36.04-89.96.68-17.33 5.25-34.85 13.91-50C65.26 72.83 78.43 59.87 96 48.69c12.16-7.73 31.62-14.13 46-15.52l13-.6z"/>
<path fill="green" d="M145 32.21c-8.18 1.4-13.84 1.89-22 4.22C90.71 45.64 64.28 68.48 50.31 99 21.83 161.19 53.83 234.88 119 256.33c8.9 2.93 22.67 5.56 32 5.67 19.53.22 37.37-3.06 55-11.76 13.04-6.43 25.1-15.43 34.83-26.24 41.74-46.38 37.95-118.13-6.83-160.96-9.76-9.34-23.43-17.86-36-22.84-11.87-4.7-27.22-8.14-40-7.99h-13z"/>
<path fill="#fff9" d="M229 109c-1.57-34.02-27.93-51.62-60-52h-22c-10.33.02-23.64 2.39-33 6.78-7.41 3.48-13.29 6.83-18.68 13.22-15 17.8-15.24 45.36 1.69 61.96 14.96 14.66 38.31 19.43 57.99 24.41 10.09 2.56 29.78 8.47 26.43 22.63-3.98 16.83-32.64 19.42-45.04 3.99-8.72-10.86-2.22-17.78-13.39-17.99h-4l-29 2c-2.78.03-9.18-.58-11 1.74-1.81 2.29.23 9.52.88 12.26 2.84 11.9 8.9 23.61 18.12 31.82 18.8 16.71 48.48 15.45 72 15.18 16.8-.2 38.19-7.57 49.7-20.09 20.87-22.68 21.21-61.22-5.7-79.39-16.6-11.21-38.81-15.16-58-19.89-6.7-1.66-18.59-3.89-20.67-11.63-.68-2.53-.02-4.85 1.38-6.98 4.74-7.22 14.46-8.07 22.29-6.69 4.93.86 10.13 3.81 13.21 7.76 4.43 5.68 4.26 10.88 7.22 12.34 1.44.71 4.89.57 6.57.57l18-1 25-1z"/>
</svg>