<svg xmlns="http://www.w3.org/2000/svg" width="568.168" height="349.471" viewBox="0 0 568.168 349.471"><defs><style>.a{opacity:0.5;}.b,.e{fill:#3b42d9;}.b,.f{opacity:0.1;}.c,.i{opacity:0.2;}.d{fill:#3f3d56;}.g{fill:#f1c0c0;}.h{fill:#be6f72;}.j{fill:#fed253;}.k{fill:#fbbebe;}</style></defs><g class="a" transform="translate(0.02 0)"><path class="b" d="M579.238,312.217a116.428,116.428,0,0,1-3.41,28.094q-1.148,4.645-2.668,9.1a107.446,107.446,0,0,1-4.3,10.767q-1.23,2.663-2.6,5.219a70.216,70.216,0,0,1-5.871,28.214,72.738,72.738,0,0,1-35.3,36.372,74.253,74.253,0,0,1-31.514,7.236H118.935a94.392,94.392,0,0,1-47.476-12.691l-.222-.125q-3.082-1.8-6.01-3.82A94.265,94.265,0,0,1,52.892,410.41a91.788,91.788,0,0,1-13.56-16.8,89.655,89.655,0,0,1-13.791-47.867,112.881,112.881,0,0,1-14.471-55.9c0-26.049,8.471-49.811,22.387-67.8a95.319,95.319,0,0,1,9.508-10.579,88.478,88.478,0,0,1,10.873-8.9,84.6,84.6,0,0,1,9.648-5.789c1.394-.709,2.793-1.38,4.216-2,1.249-.555,2.513-1.071,3.792-1.558q2.3-.873,4.66-1.606t4.655-1.283q3.377-.825,6.869-1.341c1.93-.285,3.859-.482,5.789-.632,1.534-.116,3.082-.178,4.641-.2h.844c1.717,0,3.425.068,5.118.183.178-.357.371-.719.55-1.071.675-1.288,1.375-2.571,2.079-3.825a.12.12,0,0,1,0-.034c.121-.222.241-.439.367-.651.569-1.027,1.163-2.045,1.77-3.053.28-.482.555-.936.839-1.389a3.69,3.69,0,0,1,.2-.328q.434-.724.883-1.447,2.233-3.57,4.645-7.014l.41-.589c.251-.357.482-.7.762-1.061.666-.931,1.351-1.867,2.04-2.783.482-.656.965-1.307,1.486-1.93q1.881-2.412,3.859-4.824t4.11-4.761c.193-.217.386-.429.589-.642l2.06-2.248h0c.1-.106.188-.2.285-.3h0c.246-.265.482-.531.748-.786,1.1-1.172,2.238-2.32,3.377-3.463a183.881,183.881,0,0,1,18.475-16.1c.256-.2.516-.4.772-.589,1.225-.921,2.47-1.833,3.714-2.73a195.509,195.509,0,0,1,21.423-13.362c.511-.294,1.032-.569,1.558-.839a204.532,204.532,0,0,1,20.5-9.435c3.816-1.51,7.718-2.928,11.645-4.226,2.615-.859,5.239-1.674,7.9-2.441q6.232-1.794,12.552-3.217A223.511,223.511,0,0,1,271.4,88.064q5.788-.294,11.707-.3A224.309,224.309,0,0,1,339.543,94.9a2.036,2.036,0,0,0,1.751.912h1.621c.7.193,1.4.386,2.108.589q5.9,1.7,11.63,3.71l.965.347a207.635,207.635,0,0,1,27.452,12.06,198.1,198.1,0,0,1,22.985,14.2q1.693,1.216,3.338,2.45,2-1.278,4.062-2.45a79.892,79.892,0,0,1,16.825-7.173,76.747,76.747,0,0,1,37.741-1.476c16.039,3.4,30.559,11.842,42.286,23.849a98.672,98.672,0,0,1,12.682,16.1c.265.415.531.835.786,1.259a106.125,106.125,0,0,1,8.075,16.1c.082.207.164.4.236.6a111.462,111.462,0,0,1,4.969,16.087c.058.28.125.555.183.835a115.834,115.834,0,0,1,2.373,16.1,3.119,3.119,0,0,0,.039.593q.3,4.2.309,8.49c0,2.557-.087,5.094-.246,7.612,0,.275-.039.56-.063.844-.043.728-.106,1.447-.169,2.18a91.544,91.544,0,0,1,10.313,9.73q2.108,2.3,4.081,4.776a101.6,101.6,0,0,1,10.516,16.1A112.966,112.966,0,0,1,579.238,312.217Z" transform="translate(-11.09 -87.76)"/><path class="b" d="M589.291,774.286c0,3.295-11.35,6.382-31.157,9.035H183.5a94.393,94.393,0,0,1-47.476-12.691l-.222-.125c5.692-2.074,15.967-4.009,29.951-5.755h0l.627-.077c6.271-.767,13.28-1.5,20.94-2.185a4.762,4.762,0,0,0,.584-.053h0q9.117-.81,19.4-1.52c.217,0,.429-.039.646-.048q3.965-.285,8.094-.54h0l1.061-.068c20.043-1.245,42.826-2.238,67.533-2.894h.029q5.19-.145,10.492-.256,5.895-.14,11.934-.246c3.073-.068,6.184-.116,9.305-.164h.072c14.081-.212,28.629-.318,43.506-.318,36.786,0,71.556.671,102.366,1.876h.087c4.737.183,9.387.386,13.922.593l3.859.183q7.675.367,14.954.786h0C552.225,763.066,589.291,768.338,589.291,774.286Z" transform="translate(-75.653 -433.851)"/><g class="c" transform="translate(299.717 190.534)"><path class="d" d="M680.308,744.375a9.158,9.158,0,0,1-.178,1.548q-5.036-.8-10.13-1.447v-.415a8.143,8.143,0,0,1,1.206-4.091,4.488,4.488,0,0,1,8.167.251A8.138,8.138,0,0,1,680.308,744.375Z" transform="translate(-651.882 -614.594)"/><ellipse class="d" cx="6.758" cy="5.161" rx="6.758" ry="5.161" transform="translate(18.174 127.969) rotate(-88.19)"/><ellipse class="d" cx="6.758" cy="5.161" rx="6.758" ry="5.161" transform="translate(18.437 119.71) rotate(-88.19)"/><ellipse class="d" cx="6.758" cy="5.161" rx="6.758" ry="5.161" transform="translate(18.695 111.452) rotate(-88.19)"/><ellipse class="d" cx="6.758" cy="5.161" rx="6.758" ry="5.161" transform="translate(18.953 103.193) rotate(-88.19)"/><path class="e" d="M639.208,522.207a23.953,23.953,0,0,1-1.833-2.894l13.632-1.8-14.674-.352a24.785,24.785,0,0,1,.15-19.6l19.353,10.829-17.727-13.912a24.736,24.736,0,1,1,39.96,28.943,24.5,24.5,0,0,1,2.677,4.6L662.854,536.6l18.972-5.707a24.766,24.766,0,0,1-4.737,23.111,24.737,24.737,0,1,1-38.861-1.225,24.737,24.737,0,0,1,.965-30.573Z" transform="translate(-632.44 -482.747)"/><path class="f" d="M682.878,598.7a24.6,24.6,0,0,1-5.789,15.118,24.737,24.737,0,1,1-38.861-1.225C635.06,608.284,682.965,595.926,682.878,598.7Z" transform="translate(-632.44 -542.558)"/></g><g class="c" transform="translate(226.395 190.534)"><path class="d" d="M528.308,744.375a9.158,9.158,0,0,1-.178,1.548q-5.036-.8-10.13-1.447v-.415a8.143,8.143,0,0,1,1.206-4.091,4.488,4.488,0,0,1,8.167.251A8.138,8.138,0,0,1,528.308,744.375Z" transform="translate(-499.882 -614.594)"/><ellipse class="d" cx="6.758" cy="5.161" rx="6.758" ry="5.161" transform="translate(18.168 127.971) rotate(-88.19)"/><ellipse class="d" cx="6.758" cy="5.161" rx="6.758" ry="5.161" transform="translate(18.431 119.712) rotate(-88.19)"/><ellipse class="d" cx="6.758" cy="5.161" rx="6.758" ry="5.161" transform="translate(18.689 111.454) rotate(-88.19)"/><ellipse class="d" cx="6.758" cy="5.161" rx="6.758" ry="5.161" transform="translate(18.948 103.195) rotate(-88.19)"/><path class="e" d="M487.208,522.207a23.961,23.961,0,0,1-1.833-2.894l13.632-1.8-14.674-.352a24.785,24.785,0,0,1,.15-19.6l19.353,10.829-17.727-13.912a24.736,24.736,0,1,1,39.96,28.943,24.5,24.5,0,0,1,2.677,4.6L510.854,536.6l18.972-5.707a24.765,24.765,0,0,1-4.737,23.111,24.736,24.736,0,1,1-38.861-1.225,24.737,24.737,0,0,1,.965-30.573Z" transform="translate(-480.44 -482.747)"/><path class="f" d="M530.878,598.7a24.6,24.6,0,0,1-5.789,15.118,24.736,24.736,0,1,1-38.861-1.225C483.06,608.284,530.965,595.926,530.878,598.7Z" transform="translate(-480.44 -542.558)"/></g><g class="c" transform="translate(400.412 75.833)"><path class="d" d="M933.234,748.419a17.982,17.982,0,0,1-.352,2.933q-9.7-1.548-19.532-2.769v-.8a15.678,15.678,0,0,1,2.325-7.877c1.93-3.024,4.824-4.92,8.022-4.824s5.982,2.176,7.718,5.306a15.692,15.692,0,0,1,1.819,8.027Z" transform="translate(-878.539 -498.659)"/><ellipse class="d" cx="13.015" cy="9.942" rx="13.015" ry="9.942" transform="translate(34.936 246.261) rotate(-88.19)"/><ellipse class="d" cx="13.015" cy="9.942" rx="13.015" ry="9.942" transform="translate(35.437 230.361) rotate(-88.19)"/><ellipse class="d" cx="13.015" cy="9.942" rx="13.015" ry="9.942" transform="translate(35.944 214.462) rotate(-88.19)"/><ellipse class="d" cx="13.015" cy="9.942" rx="13.015" ry="9.942" transform="translate(35.888 197.875) rotate(-88.282)"/><path class="e" d="M854.178,320.846a47.892,47.892,0,0,1-3.526-5.562l26.242-3.463-28.243-.68a47.708,47.708,0,0,1,.28-37.742l37.264,20.844L852.07,267.461A47.621,47.621,0,1,1,929,323.2a47.613,47.613,0,0,1,5.157,8.852L899.706,348.6l36.521-11a47.635,47.635,0,0,1-9.083,44.451,47.621,47.621,0,1,1-74.817-2.359,47.635,47.635,0,0,1,1.852-58.851Z" transform="translate(-841.186 -244.965)"/><path class="f" d="M938.278,468a47.437,47.437,0,0,1-11.095,29.107,47.621,47.621,0,1,1-74.817-2.359C846.221,486.447,938.447,462.661,938.278,468Z" transform="translate(-841.207 -360.012)"/></g><path class="g" d="M157.82,343.715l5.06-.014h7.134l9.021-146.538,89.332-149.07-3.883-4.168V33.37L167.873,193.709Z" transform="translate(-81.701 -17.273)"/><path class="f" d="M169.43,355.026h6.594l9.021-146.538,89.332-149.07-3.883-4.168-92.144,151Z" transform="translate(-87.711 -28.599)"/><path class="g" d="M126.91,668.266l231.471,17.713.2.014,224.013-13.777.169-.01v-9.46l-246.834-4.53-205.933-.2h-1.505l-.164,1.061Z" transform="translate(-65.701 -340.604)"/><path class="f" d="M126.91,668.266l231.471,17.713.2.014,224.013-13.777.169-.183v-9.088h-.2l-224.182,7.487L129.992,658.02h-.034l-.405.265-1.23.8Z" transform="translate(-65.701 -340.604)"/><path class="f" d="M126.91,668.55l231.471,17.713V670.716L129.553,658.57l-1.23.8Z" transform="translate(-65.701 -340.889)"/><path class="g" d="M378.88,43.846,480.928,153.375l-3.155,192.663,8.668,1.047.145.019h8.668l1.037-185.456,191.086,63.829L690.6,339.126l6.975.781,2.364.265-5.47-122.578L494.714,147.466,385.185,33.6h-6.3Z" transform="translate(-196.126 -17.392)"/><path class="f" d="M620.65,291.7l.786,3.545,191.086,63.829,3.222,113.649,6.975.781-5.47-116.794Z" transform="translate(-321.271 -150.99)"/><path class="f" d="M378.88,43.846,480.928,153.375l-3.155,192.663,8.668,1.047L488.8,147.07,378.88,33.6Z" transform="translate(-196.126 -17.392)"/><path class="g" d="M621.42,438.563l70.085,13.8.024,0L814.281,476.55l5.62-2.253-.019-.4-.367-7.839L621.492,426.05Z" transform="translate(-321.669 -220.532)"/><path class="f" d="M766.76,480.61l122.751,24.182,5.62-2.253-.019-.4Z" transform="translate(-396.9 -248.773)"/><path class="g" d="M776.49,350.56l1.9,104.358.979,53.539,8.63-.289,5.432-.183L791.738,352.07l-3.743-1.245-.82-.265Z" transform="translate(-401.936 -181.457)"/><path class="f" d="M776.65,350.51v.024l1.819,104.358.979,53.539,8.63-.289V350.51Z" transform="translate(-402.019 -181.431)"/><path class="d" d="M492.086,486.441a10.991,10.991,0,0,1,1.447.941,9.574,9.574,0,0,1,1.447,1.587c2.069,2.677,3.98,5.789,3.777,9.165a3.729,3.729,0,0,1-1.076,2.653,4.821,4.821,0,0,1-3.2.762,6.809,6.809,0,0,1-3.545-.627c-1.052-.627-1.93-1.848-3.174-1.819a1.626,1.626,0,0,1-.531,0c-.429-.14-.516-.7-.8-1.061-.482-.642-1.5-.482-2.258-.2a3.273,3.273,0,0,1-2.344.376,2.436,2.436,0,0,1-1.018-1.018c-1.79-2.894-2.171-6.372-2.508-9.734-.207-2.045-1.79-9.021,2.576-7.434a36.2,36.2,0,0,1,5.49,3.1Z" transform="translate(-252.709 -290.686)"/><path class="d" d="M497.457,492.181a2.151,2.151,0,0,0,2.648-.106,3.99,3.99,0,0,0,1.288-2.5c.482-.15.728.482,1.037.868.54.656,1.64.646,2.132,1.346.342.482.265,1.153.506,1.7.314.7,1.09,1.071,1.621,1.64a5.586,5.586,0,0,1,1.061,2.118l.791,2.373a11.732,11.732,0,0,1,.724,3.073,3.98,3.98,0,0,1-.917,2.938c-1.061,1.143-2.8,1.264-4.341,1.23a5.588,5.588,0,0,1-1.524-.178,4.327,4.327,0,0,1-2.6-3.184,40.2,40.2,0,0,1-.535-4.255,16.676,16.676,0,0,0-1.206-4.042c-.424-1-1.592-2.5-1.573-3.565C496.917,491.636,497.168,491.954,497.457,492.181Z" transform="translate(-262.394 -295.736)"/><path class="h" d="M494.939,478.2a7.963,7.963,0,0,1-.391-2.118,9.219,9.219,0,0,1,1.327-4.1l-5.514.748a2.441,2.441,0,0,0-1.785.781,1.929,1.929,0,0,0,0,1.78,9.1,9.1,0,0,1,.656,1.722,8.6,8.6,0,0,0,.178,1.548,3.279,3.279,0,0,0,.709,1,33.448,33.448,0,0,1,3.936,5.846c-.034-.058,3.324-2.658,3.189-3.507-.077-.482-1.047-1.061-1.355-1.524A7.761,7.761,0,0,1,494.939,478.2Z" transform="translate(-258.144 -286.64)"/><path class="g" d="M481.447,358.04v4.751l-81.363,15.87-4.221,2.557H381.3v-2.677l79.94-19.315Z" transform="translate(-197.378 -185.329)"/><path class="f" d="M481.447,367.89l-81.363,15.87-4.221,2.557H381.3l80.534-17.235Z" transform="translate(-197.378 -190.427)"/><path class="e" d="M450.039,722.962a6.3,6.3,0,0,0-7.67-1.63,2.02,2.02,0,0,0-.7.55c-.482.675-.174,1.606-.13,2.441.111,2.036-1.51,3.69-2.967,5.113a7.014,7.014,0,0,0-1.93,2.615,2.45,2.45,0,0,0,.854,2.894,3.556,3.556,0,0,0,1.322.367,14.262,14.262,0,0,0,4.679.13,5.069,5.069,0,0,0,3.714-2.586,2.726,2.726,0,0,1,.622-1.027c.849-.67,2.151.116,3.116-.362.8-.4.83-1.018.839-1.838C451.815,727.361,451.477,724.795,450.039,722.962Z" transform="translate(-231.295 -415.367)"/><path class="e" d="M477.374,719.056a15.882,15.882,0,0,1,.753,4.935,4.762,4.762,0,0,1-.449,2.812,3.843,3.843,0,0,1-2.513,1.447c-2.012.415-4.341.024-5.639-1.573a5.95,5.95,0,0,1-1.018-4.477c.154-1.3.482-2.817-.449-3.738-.241-.246-.555-.42-.777-.685a2.3,2.3,0,0,1-.145-2.2,9.552,9.552,0,0,0,.757-2.176c.039-.357,6.531.251,7.13.545.815.4.69,1.071.936,1.881C476.3,716.958,476.959,717.976,477.374,719.056Z" transform="translate(-247.052 -411.548)"/><path class="d" d="M457.454,579.98a5.36,5.36,0,0,1,1.963,3.951c.545,4.124-.41,8.292-.482,12.455-.068,5.832,1.621,11.77.178,17.419-.863,3.377-.13,7.236-.941,10.646-.241,1.013-.685,1.968-.917,2.981a13.007,13.007,0,0,0,.7,6.638,6.854,6.854,0,0,1,.41,1.8,6.473,6.473,0,0,1-.7,2.721l-2.894,6.845c-.323.767-1.6.892-2.412.994-1.534.183-3.246.314-4.467-.637s-1.515-2.542-1.7-4.028a61.749,61.749,0,0,1-.482-8.6,7.086,7.086,0,0,0-.2-2.233,19.57,19.57,0,0,1-1.008-2.412c-.2-1.129.371-2.238.584-3.377a10.172,10.172,0,0,0-.048-3.131c-.188-1.544-.405-3.087-.651-4.621a20.48,20.48,0,0,1,.482-6.416,17.69,17.69,0,0,0-.482-6.088,16.784,16.784,0,0,1-.6,4.824c-.256.767-.622,1.5-.844,2.282-.989,3.507,1.119,7.188.82,10.82-.14,1.7-.806,3.377-.617,5.05a17.037,17.037,0,0,0,1.09,3.517,4.558,4.558,0,0,1,0,3.594c-1.568,2.962-.4,6.99,1.008,10.029a13.534,13.534,0,0,1,.743,1.669c.415,1.37.068,2.841.178,4.269a2.692,2.692,0,0,1-2.262-.68c-.212-.222-.386-.482-.593-.714a5.89,5.89,0,0,0-2.016-1.259,2.648,2.648,0,0,0-1.447-.333,2.894,2.894,0,0,0-1.375.854,13.466,13.466,0,0,1-1.515,1.153,1.793,1.793,0,0,1-.772.342.68.68,0,0,1-.709-.362.857.857,0,0,1-.053-.251,38.172,38.172,0,0,1-.285-4.39c0-2.523-3.02-4.26-3.4-6.753-.3-2.011.26-4.062.072-6.088a29.592,29.592,0,0,1-.362-3.107c0-.675.154-1.336.207-2.007a15.008,15.008,0,0,0-.034-2.233l-.15-2.33a20.133,20.133,0,0,0-1.211-6.753,22.947,22.947,0,0,1-1.881-7.757c-.1-1.688-.034-3.377-.227-5.07a24.962,24.962,0,0,1-.449-4.583c.092-1.187.482-2.335.574-3.521.188-2.282-.68-4.5-1.36-6.686s-1.182-4.607-.289-6.715a2.2,2.2,0,0,1,.617-.9,2.692,2.692,0,0,1,1.138-.424,88.33,88.33,0,0,1,25.19-1.606,8.364,8.364,0,0,1,3.883,1.211Z" transform="translate(-225.94 -341.771)"/><circle class="h" cx="7.728" cy="7.728" r="7.728" transform="translate(196.401 171.52)"/><path class="h" d="M427.981,471.233a2.759,2.759,0,0,1,0,1.346,3.049,3.049,0,0,1-.506.849A21.8,21.8,0,0,1,425,476.12a4.481,4.481,0,0,0,2.311,2.282,13.414,13.414,0,0,0,3.189.912,3.342,3.342,0,0,0,3.126-.54l4.293-2.571a8.576,8.576,0,0,0,1.785-1.288,4.394,4.394,0,0,0,1.245-3.02.83.83,0,0,0-.154-.569,1.013,1.013,0,0,0-.589-.246,5.232,5.232,0,0,1-3.377-2.947,15.61,15.61,0,0,1-1.172-4.472l-4.578,2.412c-.68.362-1.355.724-2.06,1.037-.449.2-1.355.371-1.674.781C426.737,468.648,427.822,470.322,427.981,471.233Z" transform="translate(-225.348 -282.333)"/><path class="d" d="M423.337,481.3a5.089,5.089,0,0,0-1.481,2,5.216,5.216,0,0,0,.27,2.938,87.65,87.65,0,0,1,2.894,12.441c.405,2.894.555,5.832.753,8.76.405,5.972.994,15.494,1.78,21.427,2.894.13,5.716-.714,8.586-1.023,5.364-.569,10.887.733,16.141-.482-1.273-5.031-2.547-13.622-3.82-18.649a35.584,35.584,0,0,1-1.167-6.054c-.111-1.471-.043-2.947-.024-4.428.043-2.894-.116-5.789-.275-8.683a55.085,55.085,0,0,0-1.167-10.058,1.872,1.872,0,0,0-.56-1.1,2.265,2.265,0,0,0-1.684-.15,7.323,7.323,0,0,1-5.007-1.187c-.637-.434-1.491-.965-2.084-.482a2.074,2.074,0,0,0-.482,1.027,5.137,5.137,0,0,1-3.02,2.976,15.112,15.112,0,0,1-4.274.878,2.1,2.1,0,0,1-1.327-.15c-.685-.42-.733-1.93-1.6-2.031C425.035,479.179,423.849,480.81,423.337,481.3Z" transform="translate(-223.656 -288.914)"/><path class="e" d="M425.564,493.42c-1.78-1.7-2.561-4.173-3.859-6.271a13.96,13.96,0,0,0-3.333-3.666,9.94,9.94,0,0,1-1.814-1.539c-.458-.564-.806-1.317-1.5-1.534a1.814,1.814,0,0,0-1.626.449,16,16,0,0,0-1.206,1.283c-2.045,2.118-5.639,2.412-7.26,4.862a3.984,3.984,0,0,0-.863,1.809,14.018,14.018,0,0,0,2.576,10.082,3.425,3.425,0,0,0,1.785,1.447,5.586,5.586,0,0,0,.347,2.653,70.95,70.95,0,0,0,3.285,8.948,21.646,21.646,0,0,0-.646,3.468c-.338,2.947-.024,5.938-.343,8.89-.26,2.412-.965,4.761-.989,7.178,0,.386.034.844.367,1.042a1.11,1.11,0,0,0,.574.121l5.933.178a48.16,48.16,0,0,0,10.313-.434,4.292,4.292,0,0,0,1.3-.41c1.148-.642,1.529-2.089,1.712-3.377a29.429,29.429,0,0,0,.285-5.046c.719,2.272,1.573,4.621,3.743,5.605a8.4,8.4,0,0,0,3.719.449,70.017,70.017,0,0,0,8.1-.835,1.066,1.066,0,0,0,1.182-1.24l.029-2.634c.058-5.35-1.269-10.463-1.785-15.788a34.328,34.328,0,0,0-.56-5.022c-.169-.69-.415-1.365-.564-2.06a14.722,14.722,0,0,1-.241-2.06l-.376-5.306c-.178-2.455-.434-4.824-.622-7.274a35.214,35.214,0,0,0-1.032-7.072c-.42-1.447-1.293-3.087-2.8-3.266a5.777,5.777,0,0,0-2.354.506,9.512,9.512,0,0,1-5.789-.024,8.151,8.151,0,0,0-1.8-.482,1.77,1.77,0,0,0-1.65.685,2.475,2.475,0,0,0-.256,1.216A64.342,64.342,0,0,1,425.564,493.42Z" transform="translate(-214.47 -289.257)"/><path class="d" d="M418.264,503.691c-2.224-2.344-4.505-4.732-7.371-6.223a5.887,5.887,0,0,0-3.661-.81,2.741,2.741,0,0,0-2.354,2.576,16.669,16.669,0,0,0,.666,2.253,23.654,23.654,0,0,0,.193,2.634,4.457,4.457,0,0,0,.965,1.481l3.415,4.047a21.985,21.985,0,0,0,4.756,4.568,7.149,7.149,0,0,0,6.319.883,7.766,7.766,0,0,0,3.464-3.179c.849-1.351,1.447-2.827,2.243-4.221a20.959,20.959,0,0,1,4.824-5.851,5.359,5.359,0,0,1-2.894-1.447,4.783,4.783,0,0,1-.458-.83l-.781-1.688a1.93,1.93,0,0,0-1.447.545,12.132,12.132,0,0,1-1.076,1.1c-.68.511-1.6.651-2.219,1.235a5.882,5.882,0,0,0-.646.81,5.412,5.412,0,0,1-3.936,2.122Z" transform="translate(-214.931 -299.383)"/><path class="h" d="M455.391,475.675c1.674-3.053,1.6-6.715,2.074-10.164a4.64,4.64,0,0,1,.921-2.523c.965-1.09,2.668-1.1,4.124-.965.429.048.965.251.941.68a.868.868,0,0,1-.217.41,11.476,11.476,0,0,0-2.383,6.329c.757.526,1.93-.555,2.658,0,.482.405.26,1.206-.029,1.785q-1.008,2.012-2.079,3.994a12.826,12.826,0,0,1-2.2,3.179c-.613.588-1.331,1.052-1.954,1.63-1.447,1.355-2.32,3.271-3.816,4.592a.781.781,0,0,1-.482.246.81.81,0,0,1-.506-.227,7.313,7.313,0,0,1-1.823-2.2c-.569-1.052-.482-1.36.415-2.1A15.944,15.944,0,0,0,455.391,475.675Z" transform="translate(-238.421 -281.454)"/><path class="e" d="M417.123,500.078c.289.178.646.381.965.232a1,1,0,0,0,.323-.314,11.354,11.354,0,0,0,1.37-2.383.916.916,0,0,0,.1-.386c0-.309-.275-.535-.531-.714a19.662,19.662,0,0,0-4.385-2.084,9.048,9.048,0,0,0-3.956-.781,3.772,3.772,0,0,0-2.639,1.341c-.965,1.24.651,1.616,1.664,2.065C412.381,498.119,414.918,498.737,417.123,500.078Z" transform="translate(-216.588 -297.844)"/><path class="f" d="M423.672,519.3a.709.709,0,0,0,.2.608c.14-.685-.043-1.409.1-2.1.212-1.037,1.22-1.819,1.307-2.861C423.435,514.591,423.686,518.185,423.672,519.3Z" transform="translate(-224.657 -308.87)"/><path class="i" d="M567.227,358.04v4.751l-19.614,1.191-.593-4.756Z" transform="translate(-283.158 -185.329)"/><path class="d" d="M417.331,449.483c1.225-1,.516-3.092,1.346-4.433a4.307,4.307,0,0,1,2.1-1.447,9.547,9.547,0,0,1,3.063-.849,3.555,3.555,0,0,1,2.894,1.066c.314.357.526.791.82,1.163a3.136,3.136,0,0,0,3.039,1.052c.642-.145,1.307-.632,1.264-1.288a1.818,1.818,0,0,0-.579-1.032l-1.38-1.529c-1.568-1.737-3.309-3.579-5.61-4.013a9.623,9.623,0,0,0-4.785.642c-.622.207-1.322.516-1.5,1.148-.116.434.058.907-.043,1.346-.2.873-1.317,1.167-1.838,1.9s-.362,1.6-.511,2.412a21.1,21.1,0,0,0-.637,2.441c-.034.506.222,1.447.791,1.63S416.979,448.88,417.331,449.483Z" transform="translate(-220.158 -269.087)"/><path class="j" d="M430.947,439.8a14.472,14.472,0,0,0-2.566-5.866,10.279,10.279,0,0,0-4.568-3.628,6.541,6.541,0,0,0-5.687.449,8.258,8.258,0,0,0-2.841,3.584c-1.249,2.692-1.712,5.982-.26,8.567.579-.7,1.573-.386,2.451-.642a25.551,25.551,0,0,0,3.078-1.505C423.711,439.368,427.57,440.5,430.947,439.8Z" transform="translate(-219.718 -264.838)"/><path class="f" d="M417.375,447.359a2.947,2.947,0,0,1,.434-2.494.313.313,0,0,1,.256-.116.333.333,0,0,1,.2.174,10.8,10.8,0,0,1,.907,1.775,1.843,1.843,0,0,0-1.93.748" transform="translate(-221.331 -272.545)"/><path class="f" d="M440.647,442.507l-.174-1.722a.786.786,0,0,1,.034-.424.545.545,0,0,1,.7-.193,1.447,1.447,0,0,1,.564.564,10.132,10.132,0,0,1,.994,1.963,5.837,5.837,0,0,0-2.349.029" transform="translate(-233.33 -270.143)"/><path class="f" d="M416.425,502.21v3.936l-3.324.222H395.62V502.21Z" transform="translate(-204.791 -259.954)"/><path class="g" d="M357.116,428.869v4.158H336.311L281.04,363.791V360.52h11.587Z" transform="translate(-145.482 -186.612)"/><path class="f" d="M357.116,428.869v4.158H336.311L281.04,363.791V360.52h11.587Z" transform="translate(-145.482 -186.612)"/><path class="f" d="M357.116,428.869v4.158H336.311L281.04,363.791V360.52l55.57,68.349Z" transform="translate(-145.482 -186.612)"/><path class="e" d="M300.966,730.327a1.447,1.447,0,0,1-1.264,1.7,8.6,8.6,0,0,0-3.714,1.93c-.95,1.027-1.138,2.933,0,3.767a3.661,3.661,0,0,0,1.93.526,13.074,13.074,0,0,0,6.445-.806c1.418-.656,2.754-1.775,4.313-1.674.806.048,1.664.424,2.383.058s.921-1.389.926-2.243a16.608,16.608,0,0,0-.8-5.253c-.072-.232-3.14-.41-3.507-.482l-3.719-.482c-.7-.092-2.224-.622-2.779-.034S300.966,729.628,300.966,730.327Z" transform="translate(-158.163 -418.676)"/><path class="e" d="M353.022,701.183a11.653,11.653,0,0,0,.762,2.528,5.885,5.885,0,0,0,2.441,3.343,4.357,4.357,0,0,0,3.724-.178,3.068,3.068,0,0,0,1.24-.941,3.734,3.734,0,0,0,.482-2.166,11.832,11.832,0,0,0-.965-5.456c-.733-1.447-2.012-2.692-2.031-4.293l-4.394.849a1.254,1.254,0,0,0-.646.256,1.114,1.114,0,0,0-.28.526A14.361,14.361,0,0,0,353.022,701.183Z" transform="translate(-188.024 -401.572)"/><path class="e" d="M244.282,605.321a7.18,7.18,0,0,0,.7,4.559,3.528,3.528,0,0,0,3.994,1.693.584.584,0,0,0,.362-.275.68.68,0,0,0-.063-.482,7.12,7.12,0,0,1,.15-5.364c.1-.222.3-.482.531-.4a.482.482,0,0,1,.217.222,2.522,2.522,0,0,1,.338,1.331,4.95,4.95,0,0,0-.039,1.278c.092.415.535.806.921.627a.965.965,0,0,0,.439-.622c1.076-3.111.589-6.512.1-9.768a.511.511,0,0,0-.574-.535c-2.277-.227-3.521-.772-4.824,1.346A13.223,13.223,0,0,0,244.282,605.321Z" transform="translate(-131.762 -351.536)"/><path class="d" d="M298.049,595.974a29.581,29.581,0,0,0-.994,13.9l.507,4.177c.174,1.409.342,2.812.589,4.206a11.166,11.166,0,0,1,.256,2.185,11.7,11.7,0,0,1-.342,2.147,25.083,25.083,0,0,0-.506,4.486c-.053,2.412.246,4.824.434,7.236a80.583,80.583,0,0,1-.169,14.433,5.412,5.412,0,0,0,.791,3.719,4.784,4.784,0,0,1,.7,1.148c.362,1.1-.482,2.209-.7,3.343a3.377,3.377,0,0,0,2.807,3.859c3.859.458,7.824.251,11.3,2.016.367-1.071-.434-2.286-.068-3.377.232-.675.868-1.114,1.3-1.683a4.9,4.9,0,0,0,.83-2.943,10.753,10.753,0,0,0-.714-3.989,8.629,8.629,0,0,1-.965-3.246,4.1,4.1,0,0,0-.029-1.664,2.6,2.6,0,0,0-.622-.777,9.807,9.807,0,0,1-2.523-5.716,26.327,26.327,0,0,1,.2-6.339c.236-2,.555-4.105,1.823-5.663a36.338,36.338,0,0,1,1.018-14.11c.125-.424.323-.917.757-1.018a1.081,1.081,0,0,1,.926.367,6.324,6.324,0,0,1,1.447,2.721,5.932,5.932,0,0,1,.453,3.295c-.116.482-.347.907-.482,1.37a4.062,4.062,0,0,0,.145,2.832,2.721,2.721,0,0,1,.347,1.066,2.952,2.952,0,0,1-.289.926,4.264,4.264,0,0,0,.4,3.449,12.487,12.487,0,0,0,2.253,2.764,10.13,10.13,0,0,0,.314,5.576.7.7,0,0,1,.063.536c-.087.183-.309.251-.482.381-.482.4-.183,1.143.14,1.659a38.034,38.034,0,0,0,2.928,4.062c.965,1.153.878,3.377,2.315,3.792a4.34,4.34,0,0,0,1.833,0c1.418-.217,3-.627,3.7-1.881a5.062,5.062,0,0,1,.844-1.529c.444-.386,1.018-.453,1.264-.917s-.029-1.071.053-1.606.55-.965.7-1.529c.357-1.3-1.163-2.373-1.37-3.7-.3-1.93,2.132-3.377,2.031-5.306-.212-4.192-.347-8.4-.564-12.595a90.815,90.815,0,0,1-.116-11.283c.169-2.339.482-4.79-.376-6.966-1.235-3.068-4.641-4.79-7.935-5.118s-6.58.453-9.845.965a62.231,62.231,0,0,1-16.377.342Z" transform="translate(-158.912 -350.104)"/><circle class="k" cx="7.728" cy="7.728" r="7.728" transform="translate(141.202 184.308)"/><path class="k" d="M309.88,499.652a3.3,3.3,0,0,1-3.15,1.992,3.885,3.885,0,0,0,1.158,3.237,13.738,13.738,0,0,0,13.15,4.51,6.488,6.488,0,0,0,2.59-1.081,5.745,5.745,0,0,0,1.978-3.425,17.028,17.028,0,0,0,.188-4.028,1.042,1.042,0,0,0-.212-.743,1.061,1.061,0,0,0-.675-.222,11.712,11.712,0,0,1-4.766-1.008c-1.433-.8-2.451-2.61-1.761-4.1-.111.232-2.928.342-3.3.391-1.163.164-2.325.347-3.483.56a6.333,6.333,0,0,0-1.635.309c-.7.362-.439.183-.275.839C309.933,497.892,310.3,498.61,309.88,499.652Z" transform="translate(-164.096 -298.447)"/><path class="d" d="M285.6,508.575a12.8,12.8,0,0,1-3.092-.342,4.342,4.342,0,0,1-2.537-1.693c-.357-.54-.589-1.22-1.158-1.524-.931-.482-1.992.333-2.735,1.081a9.935,9.935,0,0,1-2.325,1.872c-1.032.545-2.238.738-3.213,1.38a8.075,8.075,0,0,0-1.93,2.084l-6.835,9.31c-2.745,3.743-5.133,7.762-7.578,11.712-2.118,3.42-3.227,7.356-4.824,11.047a1.235,1.235,0,0,0-.15.743c.058.251.362.453.574.309-.719.714-.087,1.93-.256,2.933a3.6,3.6,0,0,1-1.148,1.8,9.07,9.07,0,0,1,3.184.15,9.758,9.758,0,0,1,3.01,1.447c.584-.092.531-1.129.965-1.515.26-.227.646-.2.989-.265,1.288-.251,1.8-1.8,2.788-2.672.825-.728,1.992-.965,2.865-1.65,1.418-1.114,1.722-3.1,2.465-4.742.632-1.394,1.626-2.61,2.18-4.037a17.4,17.4,0,0,1,1.052-2.783,7.969,7.969,0,0,1,3.859-2.774,6.391,6.391,0,0,1,2.938-.786,27.286,27.286,0,0,0,.15,6.642c.169.772.405,1.524.608,2.291a43.148,43.148,0,0,1,1.182,10.612,32.285,32.285,0,0,1,6.753-.81c1.79-.053,3.574.178,5.364.145,2.122-.039,4.221-.449,6.343-.593a11.849,11.849,0,0,1,6.218.965,59.072,59.072,0,0,1,.256-9.165l.511-4.795a29.455,29.455,0,0,1,.642-4.139c.28-1.1.685-2.161.994-3.256,1.085-3.859.888-7.979.68-12a15.121,15.121,0,0,0-1.838-5.933,16.055,16.055,0,0,0-1.158-1.968,11.4,11.4,0,0,0-9.966-4.679,2.017,2.017,0,0,0-.714.154,2.378,2.378,0,0,0-.912,1.085,11.818,11.818,0,0,1-4.2,4.361Z" transform="translate(-133.931 -302.67)"/><path class="d" d="M303.222,478.415c.217-.482.8-.661,1.158-1.047.685-.733.376-1.905.482-2.894a4.158,4.158,0,0,1,2.75-3.174,8.886,8.886,0,0,1,4.341-.275,4.2,4.2,0,0,1,1.958.651c.251.183.482.42.719.589a1.93,1.93,0,0,0,2.624-.613c-1.708-2.055-3.6-4.226-6.194-4.858a12.7,12.7,0,0,0-2.706-.256,8.788,8.788,0,0,0-3.55.415,5.918,5.918,0,0,0-3.116,3.6,17.5,17.5,0,0,0-.757,4.824,18.174,18.174,0,0,0,0,3.28,9.069,9.069,0,0,0,1.611,4.134,1.249,1.249,0,0,0,.482.449C305.224,484.2,303.043,478.816,303.222,478.415Z" transform="translate(-161.089 -283.818)"/><path class="j" d="M315.279,465.143c-.265-2.272-1.886-4.148-3.608-5.658a13.3,13.3,0,0,0-4.848-2.918,6.478,6.478,0,0,0-5.47.666,8.4,8.4,0,0,0-2.663,3.661,11.525,11.525,0,0,0-1.163,5.306,5.721,5.721,0,0,0,2.59,4.592,4.872,4.872,0,0,1,2.508-1.616,122.809,122.809,0,0,1,12.653-4.033Z" transform="translate(-159.364 -278.501)"/><path class="f" d="M303.437,472.72c.154,0,.256.159.333.289a12.228,12.228,0,0,1,1.008,1.93c-.564.121-1.534.256-1.814-.241C302.815,474.447,302.993,472.7,303.437,472.72Z" transform="translate(-162.153 -287.023)"/><path class="f" d="M326.52,467.9c-.116.111-.251-.116-.251-.28v-1.872a.275.275,0,0,1,.034-.15.227.227,0,0,1,.159-.077c.391-.043.714.289.965.608a10.186,10.186,0,0,1,.989,1.645l-2.04-.063" transform="translate(-174.243 -283.297)"/><path class="d" d="M363,521.4a12.614,12.614,0,0,1,1.418-1.162,21.4,21.4,0,0,1,4.452-1.814,5.875,5.875,0,0,0,3.608-2.986,7.091,7.091,0,0,0,.28-2.894,2.894,2.894,0,0,0-.212-1.191,2.368,2.368,0,0,0-.762-.83c-2.036-1.505-4.766-1.626-7.294-1.471a45.715,45.715,0,0,0-16.116,4.023,1.4,1.4,0,0,0-.675.482,1.38,1.38,0,0,0-.13.671,11.1,11.1,0,0,0,.545,4.2c.666,1.717,2.036,3.1,2.61,4.853.26.786.347,1.621.574,2.412a3.376,3.376,0,0,0,1.355,2.016c1.905,1.138,3.7-.391,5.026-1.577Z" transform="translate(-185.255 -305.805)"/><path class="e" d="M309.3,523.85l-2.446-5.335a18.668,18.668,0,0,1-.926-2.282c-.28-.931-.415-1.9-.675-2.832-.859-3.116-3.025-5.711-4.081-8.765a1.664,1.664,0,0,0-.4-.738,1.288,1.288,0,0,0-1.076-.193c-1.476.256-2.629,1.38-3.98,2.016-.627.289-1.3.482-1.93.815a2.412,2.412,0,0,0-1.293,1.539,3.762,3.762,0,0,0,.526,2.166,24.46,24.46,0,0,1,1.669,9.513c.043,2.18-.068,4.52-1.355,6.271-2.475,3.377-.892,8.336.034,12.421.111.482.241,1,.318,1.515a13.92,13.92,0,0,1,.111,1.93,15.1,15.1,0,0,1-1.027,6.363,7.12,7.12,0,0,0,2.894.82q4.2.535,8.437.753a9.2,9.2,0,0,0,2.648-.135,4.824,4.824,0,0,0,3.565-4.727,5.964,5.964,0,0,0,1.409,3.714,5.611,5.611,0,0,0,3.7,1.138,68.79,68.79,0,0,0,11.143-.314,1.93,1.93,0,0,0,.685-.159c.714-.357.753-1.341.695-2.132-.106-1.481-.217-2.962-.4-4.433a18.14,18.14,0,0,1-.232-2.836,16.318,16.318,0,0,1,.482-2.894,32.825,32.825,0,0,0,.941-9.165,15.459,15.459,0,0,1-.092-2.262c.125-1.7,1.023-3.324.854-5.017-.482-4.978-.873-10.087-2.262-14.891a3.859,3.859,0,0,0-1.317-2.272c-.965-.646-2.32-.309-3.425-.719a8.57,8.57,0,0,1-1.471-.873,6.754,6.754,0,0,0-3.324-1.023,2.821,2.821,0,0,0-2.412.878,3.5,3.5,0,0,0-.482,1.317c-.7,2.943-1.519,5.851-2.34,8.76l-.786,2.788-2.108,7.487C309.374,522.852,309.514,523.1,309.3,523.85Z" transform="translate(-156.513 -301.569)"/><path class="g" d="M332.449,400.25l46.661,49.034v4.158H358.3L323.24,407.679" transform="translate(-167.326 -207.177)"/><path class="f" d="M332.449,400.25l46.661,49.034v4.158H358.3L323.24,407.679" transform="translate(-167.326 -207.177)"/><path class="f" d="M323.983,414.31l.15.053,34.471,42.2h20.506v4.158H358.3L323.24,414.956Z" transform="translate(-167.326 -214.455)"/><path class="e" d="M342.529,502.047c-1.688.738-3.565,1.684-4.071,3.459a1.732,1.732,0,0,0,1.708,2.32,5.788,5.788,0,0,0,2.32-.424l9.961-3.29c.27-.087.579-.217.646-.482a.83.83,0,0,0-.1-.482c-.309-.753-.613-2.291-1.259-2.817-.531-.424-1.582-.275-2.224-.265A18.032,18.032,0,0,0,342.529,502.047Z" transform="translate(-180.503 -301.159)"/><path class="d" d="M363.127,503.423a16.02,16.02,0,0,1,4.944.767,8.808,8.808,0,0,1,4.1,2.8,3.068,3.068,0,0,1,.646,1.264c.1.482,1.669.772,1.322,1.1,1.056-.169.806.328,1.876.318a3.546,3.546,0,0,0,2.87-1.138,3.729,3.729,0,0,0,.564-2.359,4.018,4.018,0,0,0-.318-1.669,4.928,4.928,0,0,0-2.615-2.026l-8.615-3.941a5.721,5.721,0,0,0-1.592-.564,5.952,5.952,0,0,0-1.4.034l-3.9.449a5.851,5.851,0,0,1,2.668,5.147" transform="translate(-192.22 -300.08)"/></g></svg>