<?xml version="1.0" encoding="UTF-8" standalone="no"?>
<!DOCTYPE svg PUBLIC "-//W3C//DTD SVG 20010904//EN"
              "http://www.w3.org/TR/2001/REC-SVG-20010904/DTD/svg10.dtd">

<svg xmlns="http://www.w3.org/2000/svg"
     width="27" height="43"
     viewBox="0 0 438 512">
  <path id="building_pin_outer"
        fill="#2c50de"
        d="M 203.00,5.21
           C 203.00,5.21 178.00,9.00 178.00,9.00
             149.13,14.89 120.34,28.32 97.00,46.23
             15.38,108.91 -5.47,223.27 47.45,311.00
             65.67,341.22 91.94,366.85 123.00,383.69
             131.99,388.57 141.36,392.88 151.00,396.31
             153.91,397.35 164.86,400.60 166.58,401.93
             168.82,403.66 169.82,407.40 170.81,410.00
             170.81,410.00 176.95,426.00 176.95,426.00
             176.95,426.00 199.68,486.00 199.68,486.00
             203.46,496.21 207.68,513.80 222.00,511.66
             234.98,509.72 236.92,495.25 240.81,485.00
             240.81,485.00 261.68,428.00 261.68,428.00
             263.33,423.53 269.13,405.92 271.51,403.42
             274.09,400.69 284.78,398.17 289.00,396.58
             302.50,391.48 311.53,387.33 324.00,379.99
             358.47,359.70 386.19,328.05 403.22,292.00
             439.26,215.71 422.50,122.68 362.91,63.09
             340.93,41.11 313.37,24.79 284.00,15.00
             267.64,9.55 246.24,5.03 229.00,5.21
             229.00,5.21 203.00,5.21 203.00,5.21 Z
           M 221.00,452.00
           C 216.76,449.15 213.58,437.13 211.68,432.00
             211.68,432.00 199.05,399.00 199.05,399.00
             197.38,394.53 194.02,384.41 191.50,381.00
             186.05,373.62 176.26,372.68 168.00,370.12
             156.58,366.57 143.27,360.51 133.00,354.40
             107.24,339.07 86.46,318.00 71.58,292.00
             59.82,271.45 49.28,241.87 49.00,218.00
             49.00,218.00 49.00,197.00 49.00,197.00
             49.04,168.25 61.71,134.69 77.51,111.00
             125.74,38.70 218.37,15.43 296.00,52.32
             315.41,61.54 332.46,75.40 347.02,91.00
             360.69,105.64 372.41,124.36 379.80,143.00
             386.60,160.18 391.78,183.51 392.00,202.00
             392.71,263.32 362.96,319.21 311.00,352.31
             299.92,359.36 285.56,366.07 273.00,369.98
             265.01,372.46 253.80,373.74 248.22,380.04
             244.44,384.32 240.79,397.09 238.58,403.00
             238.58,403.00 221.00,452.00 221.00,452.00 Z
           M 110.00,94.00
           C 110.00,94.00 110.00,311.00 110.00,311.00
             110.00,311.00 308.00,311.00 308.00,311.00
             328.41,310.97 341.97,297.41 342.00,277.00
             342.00,277.00 342.00,172.00 342.00,172.00
             342.00,172.00 269.00,172.00 269.00,172.00
             269.00,172.00 269.00,94.00 269.00,94.00
             269.00,94.00 110.00,94.00 110.00,94.00 Z
           M 239.00,124.00
           C 239.00,124.00 239.00,281.00 239.00,281.00
             239.00,281.00 140.00,281.00 140.00,281.00
             140.00,281.00 140.00,124.00 140.00,124.00
             140.00,124.00 239.00,124.00 239.00,124.00 Z
           M 154.00,142.00
           C 154.00,142.00 154.00,167.00 154.00,167.00
             154.00,167.00 184.00,167.00 184.00,167.00
             184.00,167.00 184.00,142.00 184.00,142.00
             184.00,142.00 154.00,142.00 154.00,142.00 Z
           M 195.00,142.00
           C 195.00,142.00 195.00,167.00 195.00,167.00
             195.00,167.00 225.00,167.00 225.00,167.00
             225.00,167.00 225.00,142.00 225.00,142.00
             225.00,142.00 195.00,142.00 195.00,142.00 Z
           M 154.00,190.00
           C 154.00,190.00 154.00,216.00 154.00,216.00
             154.00,216.00 184.00,216.00 184.00,216.00
             184.00,216.00 184.00,190.00 184.00,190.00
             184.00,190.00 154.00,190.00 154.00,190.00 Z
           M 195.00,190.00
           C 195.00,190.00 195.00,216.00 195.00,216.00
             195.00,216.00 225.00,216.00 225.00,216.00
             225.00,216.00 225.00,190.00 225.00,190.00
             225.00,190.00 195.00,190.00 195.00,190.00 Z
           M 312.00,202.00
           C 312.00,202.00 312.00,271.00 312.00,271.00
             312.00,271.00 310.40,279.40 310.40,279.40
             310.40,279.40 302.00,281.00 302.00,281.00
             302.00,281.00 269.00,281.00 269.00,281.00
             269.00,281.00 269.00,202.00 269.00,202.00
             269.00,202.00 312.00,202.00 312.00,202.00 Z
           M 154.00,239.00
           C 154.00,239.00 154.00,264.00 154.00,264.00
             154.00,264.00 184.00,264.00 184.00,264.00
             184.00,264.00 184.00,239.00 184.00,239.00
             184.00,239.00 154.00,239.00 154.00,239.00 Z
           M 195.00,239.00
           C 195.00,239.00 195.00,264.00 195.00,264.00
             195.00,264.00 225.00,264.00 225.00,264.00
             225.00,264.00 225.00,239.00 225.00,239.00
             225.00,239.00 195.00,239.00 195.00,239.00 Z" />
    <path id="building_pin_inner"
        fill="#c0cbf5"
        d="M 220.00,454.00
           C 220.00,454.00 239.58,402.00 239.58,402.00
             242.17,395.05 244.92,384.23 250.10,379.11
             255.50,373.77 266.68,372.74 274.00,370.33
             286.80,366.12 300.68,359.60 312.00,352.31
             351.38,326.95 379.08,287.94 388.79,242.00
             392.27,225.53 392.19,211.64 392.00,195.00
             391.78,176.44 384.69,153.00 377.42,136.00
             369.66,117.86 357.86,101.21 344.17,87.09
             331.68,74.21 318.82,63.88 303.00,55.31
             233.31,17.53 148.63,31.92 94.04,89.00
             80.29,103.38 69.57,120.80 61.72,139.00
             54.14,156.58 48.23,180.82 48.00,200.00
             47.25,264.04 75.50,318.60 130.00,353.31
             141.42,360.58 153.19,365.73 166.00,370.00
             173.04,372.35 183.87,374.12 188.90,379.11
             193.76,383.93 196.33,393.49 198.81,400.00
             198.81,400.00 212.58,436.00 212.58,436.00
             214.54,441.17 217.17,449.65 220.00,454.00 Z
           M 269.00,94.00
           C 269.00,94.00 269.00,173.00 269.00,173.00
             269.00,173.00 342.00,173.00 342.00,173.00
             342.00,173.00 342.00,274.00 342.00,274.00
             341.97,296.23 328.62,310.96 306.00,311.00
             306.00,311.00 110.00,311.00 110.00,311.00
             110.00,311.00 110.00,94.00 110.00,94.00
             110.00,94.00 269.00,94.00 269.00,94.00 Z
           M 139.00,123.00
           C 139.00,123.00 139.00,282.00 139.00,282.00
             139.00,282.00 239.00,282.00 239.00,282.00
             239.00,282.00 239.00,123.00 239.00,123.00
             239.00,123.00 139.00,123.00 139.00,123.00 Z
           M 184.00,142.00
           C 184.00,142.00 184.00,158.00 184.00,158.00
             184.00,158.00 182.98,165.40 182.98,165.40
             182.98,165.40 177.00,167.00 177.00,167.00
             177.00,167.00 155.00,167.00 155.00,167.00
             155.00,167.00 155.00,142.00 155.00,142.00
             155.00,142.00 184.00,142.00 184.00,142.00 Z
           M 224.00,142.00
           C 224.00,142.00 224.00,167.00 224.00,167.00
             224.00,167.00 195.00,167.00 195.00,167.00
             195.00,167.00 195.00,142.00 195.00,142.00
             195.00,142.00 224.00,142.00 224.00,142.00 Z
           M 184.00,191.00
           C 184.00,191.00 184.00,215.00 184.00,215.00
             184.00,215.00 155.00,215.00 155.00,215.00
             155.00,215.00 155.00,191.00 155.00,191.00
             155.00,191.00 184.00,191.00 184.00,191.00 Z
           M 224.00,191.00
           C 224.00,191.00 224.00,215.00 224.00,215.00
             224.00,215.00 195.00,215.00 195.00,215.00
             195.00,215.00 195.00,191.00 195.00,191.00
             195.00,191.00 224.00,191.00 224.00,191.00 Z
           M 269.00,202.00
           C 269.00,202.00 269.00,282.00 269.00,282.00
             269.00,282.00 302.00,282.00 302.00,282.00
             304.31,282.00 307.77,282.20 309.77,280.98
             314.35,278.18 313.00,266.89 313.00,262.00
             313.00,262.00 313.00,202.00 313.00,202.00
             313.00,202.00 269.00,202.00 269.00,202.00 Z
           M 184.00,239.00
           C 184.00,239.00 184.00,255.00 184.00,255.00
             184.00,255.00 182.98,262.40 182.98,262.40
             182.98,262.40 177.00,264.00 177.00,264.00
             177.00,264.00 155.00,264.00 155.00,264.00
             155.00,264.00 155.00,239.00 155.00,239.00
             155.00,239.00 184.00,239.00 184.00,239.00 Z
           M 224.00,239.00
           C 224.00,239.00 224.00,264.00 224.00,264.00
             224.00,264.00 195.00,264.00 195.00,264.00
             195.00,264.00 195.00,239.00 195.00,239.00
             195.00,239.00 224.00,239.00 224.00,239.00 Z" />
</svg>
