<?xml version="1.0" encoding="UTF-8" standalone="no"?>
<!DOCTYPE svg PUBLIC "-//W3C//DTD SVG 20010904//EN"
              "http://www.w3.org/TR/2001/REC-SVG-20010904/DTD/svg10.dtd">

<svg xmlns="http://www.w3.org/2000/svg"
     width="27" height="43"
     viewBox="0 0 438 512">
  <path id="building_outer"
        fill="#2c50de"
        d="M 176.00,39.00
           C 176.00,39.00 116.00,39.00 116.00,39.00
             97.93,39.03 89.03,45.05 89.00,64.00
             89.00,64.00 89.00,169.00 89.00,169.00
             85.61,169.46 82.15,169.96 79.00,171.36
             64.87,177.64 67.00,194.28 67.00,207.00
             67.00,207.00 67.00,250.00 67.00,250.00
             67.00,250.00 67.00,512.00 67.00,512.00
             67.00,512.00 371.00,512.00 371.00,512.00
             371.00,512.00 371.00,250.00 371.00,250.00
             371.00,250.00 371.00,207.00 371.00,207.00
             371.00,194.28 373.13,177.64 359.00,171.36
             355.85,169.96 352.39,169.46 349.00,169.00
             349.00,169.00 349.00,62.00 349.00,62.00
             348.89,52.56 345.56,44.30 336.00,40.84
             329.03,38.31 317.61,39.00 310.00,39.00
             310.00,39.00 262.00,39.00 262.00,39.00
             262.00,39.00 262.00,8.00 262.00,8.00
             262.00,8.00 260.26,0.99 260.26,0.99
             260.26,0.99 249.00,0.00 249.00,0.00
             249.00,0.00 242.17,1.57 242.17,1.57
             242.17,1.57 241.00,10.00 241.00,10.00
             241.00,10.00 241.00,39.00 241.00,39.00
             241.00,39.00 197.00,39.00 197.00,39.00
             197.00,39.00 197.00,8.00 197.00,8.00
             197.00,8.00 195.26,0.99 195.26,0.99
             195.26,0.99 184.00,0.00 184.00,0.00
             184.00,0.00 177.17,1.57 177.17,1.57
             177.17,1.57 176.00,10.00 176.00,10.00
             176.00,10.00 176.00,39.00 176.00,39.00 Z
           M 306.00,83.00
           C 306.00,83.00 306.00,169.00 306.00,169.00
             306.00,169.00 132.00,169.00 132.00,169.00
             132.00,169.00 132.00,83.00 132.00,83.00
             132.00,83.00 306.00,83.00 306.00,83.00 Z
           M 176.00,104.00
           C 176.00,104.00 176.00,148.00 176.00,148.00
             176.00,148.00 197.00,148.00 197.00,148.00
             197.00,148.00 197.00,104.00 197.00,104.00
             197.00,104.00 176.00,104.00 176.00,104.00 Z
           M 241.00,104.00
           C 241.00,104.00 241.00,148.00 241.00,148.00
             241.00,148.00 262.00,148.00 262.00,148.00
             262.00,148.00 262.00,104.00 262.00,104.00
             262.00,104.00 241.00,104.00 241.00,104.00 Z
           M 327.00,191.00
           C 327.00,191.00 327.00,473.00 327.00,473.00
             327.00,473.00 271.00,473.00 271.00,473.00
             262.36,472.98 262.02,472.64 262.00,464.00
             262.00,464.00 262.00,408.00 262.00,408.00
             262.00,408.00 176.00,408.00 176.00,408.00
             176.00,408.00 176.00,464.00 176.00,464.00
             175.98,472.64 175.64,472.98 167.00,473.00
             167.00,473.00 111.00,473.00 111.00,473.00
             111.00,473.00 111.00,191.00 111.00,191.00
             111.00,191.00 327.00,191.00 327.00,191.00 Z
           M 176.00,213.00
           C 176.00,213.00 176.00,256.00 176.00,256.00
             176.00,256.00 197.00,256.00 197.00,256.00
             197.00,256.00 197.00,213.00 197.00,213.00
             197.00,213.00 176.00,213.00 176.00,213.00 Z
           M 241.00,213.00
           C 241.00,213.00 241.00,256.00 241.00,256.00
             241.00,256.00 262.00,256.00 262.00,256.00
             262.00,256.00 262.00,213.00 262.00,213.00
             262.00,213.00 241.00,213.00 241.00,213.00 Z
           M 176.00,278.00
           C 176.00,278.00 176.00,321.00 176.00,321.00
             176.00,321.00 197.00,321.00 197.00,321.00
             197.00,321.00 197.00,278.00 197.00,278.00
             197.00,278.00 176.00,278.00 176.00,278.00 Z
           M 241.00,278.00
           C 241.00,278.00 241.00,321.00 241.00,321.00
             241.00,321.00 262.00,321.00 262.00,321.00
             262.00,321.00 262.00,278.00 262.00,278.00
             262.00,278.00 241.00,278.00 241.00,278.00 Z
           M 176.00,343.00
           C 176.00,343.00 176.00,386.00 176.00,386.00
             176.00,386.00 197.00,386.00 197.00,386.00
             197.00,386.00 197.00,343.00 197.00,343.00
             197.00,343.00 176.00,343.00 176.00,343.00 Z
           M 241.00,343.00
           C 241.00,343.00 241.00,386.00 241.00,386.00
             241.00,386.00 262.00,386.00 262.00,386.00
             262.00,386.00 262.00,343.00 262.00,343.00
             262.00,343.00 241.00,343.00 241.00,343.00 Z
           M 199.31,429.60
           C 199.31,429.60 233.00,429.00 233.00,429.00
             234.82,429.01 237.92,428.85 239.40,430.02
             241.26,431.49 240.98,434.87 241.00,437.00
             241.00,437.00 241.00,464.00 241.00,464.00
             241.00,466.30 241.38,470.41 239.40,471.98
             237.81,473.23 233.99,473.00 232.00,473.00
             232.00,473.00 205.00,473.00 205.00,473.00
             202.87,472.98 199.49,473.26 198.02,471.40
             196.77,469.81 197.00,465.99 197.00,464.00
             197.00,464.00 197.00,437.00 197.00,437.00
             197.02,433.43 196.49,431.98 199.31,429.60 Z" />
  <path id="building_inner"
        fill="#c0cbf5"
        d="M 132.00,83.00
           C 132.00,83.00 132.00,169.00 132.00,169.00
             132.00,169.00 306.00,169.00 306.00,169.00
             306.00,169.00 306.00,83.00 306.00,83.00
             306.00,83.00 132.00,83.00 132.00,83.00 Z
           M 197.00,104.00
           C 197.00,104.00 197.00,148.00 197.00,148.00
             197.00,148.00 176.00,148.00 176.00,148.00
             176.00,148.00 176.00,104.00 176.00,104.00
             176.00,104.00 197.00,104.00 197.00,104.00 Z
           M 262.00,104.00
           C 262.00,104.00 262.00,148.00 262.00,148.00
             262.00,148.00 241.00,148.00 241.00,148.00
             241.00,148.00 241.00,104.00 241.00,104.00
             241.00,104.00 262.00,104.00 262.00,104.00 Z
           M 111.00,191.00
           C 111.00,191.00 111.00,473.00 111.00,473.00
             111.00,473.00 167.00,473.00 167.00,473.00
             175.64,472.98 175.98,472.64 176.00,464.00
             176.00,464.00 176.00,408.00 176.00,408.00
             176.00,408.00 262.00,408.00 262.00,408.00
             262.00,408.00 262.00,464.00 262.00,464.00
             262.02,472.64 262.36,472.98 271.00,473.00
             271.00,473.00 327.00,473.00 327.00,473.00
             327.00,473.00 327.00,191.00 327.00,191.00
             327.00,191.00 111.00,191.00 111.00,191.00 Z
           M 197.00,213.00
           C 197.00,213.00 197.00,256.00 197.00,256.00
             197.00,256.00 176.00,256.00 176.00,256.00
             176.00,256.00 176.00,213.00 176.00,213.00
             176.00,213.00 197.00,213.00 197.00,213.00 Z
           M 262.00,213.00
           C 262.00,213.00 262.00,256.00 262.00,256.00
             262.00,256.00 241.00,256.00 241.00,256.00
             241.00,256.00 241.00,213.00 241.00,213.00
             241.00,213.00 262.00,213.00 262.00,213.00 Z
           M 197.00,278.00
           C 197.00,278.00 197.00,321.00 197.00,321.00
             197.00,321.00 176.00,321.00 176.00,321.00
             176.00,321.00 176.00,278.00 176.00,278.00
             176.00,278.00 197.00,278.00 197.00,278.00 Z
           M 262.00,278.00
           C 262.00,278.00 262.00,321.00 262.00,321.00
             262.00,321.00 241.00,321.00 241.00,321.00
             241.00,321.00 241.00,278.00 241.00,278.00
             241.00,278.00 262.00,278.00 262.00,278.00 Z
           M 197.00,343.00
           C 197.00,343.00 197.00,386.00 197.00,386.00
             197.00,386.00 176.00,386.00 176.00,386.00
             176.00,386.00 176.00,343.00 176.00,343.00
             176.00,343.00 197.00,343.00 197.00,343.00 Z
           M 262.00,343.00
           C 262.00,343.00 262.00,386.00 262.00,386.00
             262.00,386.00 241.00,386.00 241.00,386.00
             241.00,386.00 241.00,343.00 241.00,343.00
             241.00,343.00 262.00,343.00 262.00,343.00 Z
           M 198.60,430.02
           C 196.29,433.24 197.00,437.13 197.00,441.00
             197.00,441.00 197.00,465.00 197.00,465.00
             197.01,466.82 196.85,469.92 198.02,471.40
             199.59,473.38 203.70,473.00 206.00,473.00
             206.00,473.00 232.00,473.00 232.00,473.00
             234.30,473.00 238.41,473.38 239.98,471.40
             241.23,469.81 241.00,465.99 241.00,464.00
             241.00,464.00 241.00,438.00 241.00,438.00
             241.00,435.70 241.38,431.59 239.40,430.02
             237.81,428.77 233.99,429.00 232.00,429.00
             232.00,429.00 210.00,429.00 210.00,429.00
             206.16,429.00 202.16,428.51 198.60,430.02 Z" />
</svg>
