<?xml version="1.0" encoding="UTF-8" standalone="no"?>
<!DOCTYPE svg PUBLIC "-//W3C//DTD SVG 20010904//EN"
              "http://www.w3.org/TR/2001/REC-SVG-20010904/DTD/svg10.dtd">

<svg xmlns="http://www.w3.org/2000/svg"
     width="27" height="43"
     viewBox="0 0 438 438">
  <path id="path"
        fill="#65AA33"
        d="M 47.00,123.00
           C 47.00,123.00 47.00,315.00 47.00,315.00
             40.87,315.56 38.39,317.02 33.00,319.76
             13.82,329.49 0.26,350.29 0.00,372.00
             -0.12,382.35 0.31,389.11 4.06,399.00
             12.43,421.03 35.27,437.72 59.00,438.00
             76.25,438.20 89.33,435.11 103.00,423.91
             111.98,416.54 121.92,402.85 123.00,391.00
             123.00,391.00 315.00,391.00 315.00,391.00
             316.09,403.01 325.90,416.44 335.00,423.91
             348.67,435.11 361.75,438.20 379.00,438.00
             404.98,437.69 428.29,418.57 435.56,394.00
             438.09,385.47 438.10,380.69 438.00,372.00
             437.74,350.29 424.18,329.49 405.00,319.76
             399.61,317.02 397.13,315.56 391.00,315.00
             391.00,315.00 391.00,123.00 391.00,123.00
             402.85,121.92 416.54,111.98 423.91,103.00
             435.11,89.33 438.20,76.25 438.00,59.00
             437.71,34.85 420.61,11.77 398.00,3.70
             388.24,0.21 382.14,-0.11 372.00,0.00
             350.29,0.26 329.49,13.82 319.76,33.00
             317.02,38.39 315.56,40.87 315.00,47.00
             315.00,47.00 123.00,47.00 123.00,47.00
             122.44,40.87 120.98,38.39 118.24,33.00
             108.51,13.82 87.71,0.26 66.00,0.00
             55.86,-0.11 49.76,0.21 40.00,3.70
             17.39,11.77 0.29,34.85 0.00,59.00
             -0.20,76.25 2.89,89.33 14.09,103.00
             21.56,112.10 34.99,121.91 47.00,123.00 Z
           M 59.00,32.30
           C 68.93,31.32 78.87,34.51 85.67,42.09
             98.65,56.56 94.42,81.09 77.00,90.01
             71.38,92.88 67.12,93.07 61.00,93.00
             37.64,92.72 25.02,66.55 36.36,47.00
             41.43,38.26 49.41,34.11 59.00,32.30 Z
           M 371.00,32.30
           C 400.22,29.42 416.36,61.33 398.48,82.96
             395.58,86.47 392.10,88.78 388.00,90.68
             382.69,93.14 379.68,93.06 374.00,93.00
             357.73,92.81 345.19,80.27 345.00,64.00
             344.96,60.11 344.84,56.75 346.10,53.00
             350.07,41.18 359.05,34.56 371.00,32.30 Z
           M 315.00,79.00
           C 319.68,99.52 338.48,118.32 359.00,123.00
             359.00,123.00 359.00,315.00 359.00,315.00
             338.52,319.67 319.67,338.52 315.00,359.00
             315.00,359.00 123.00,359.00 123.00,359.00
             118.33,338.52 99.48,319.67 79.00,315.00
             79.00,315.00 79.00,123.00 79.00,123.00
             99.52,118.32 118.32,99.52 123.00,79.00
             123.00,79.00 315.00,79.00 315.00,79.00 Z
           M 56.00,345.33
           C 69.03,343.88 79.08,346.05 87.47,357.00
             91.41,362.14 92.92,367.61 93.00,374.00
             93.18,389.99 84.28,402.60 68.00,405.54
             37.46,411.05 18.94,371.04 43.04,351.53
             46.81,348.48 51.32,346.45 56.00,345.33 Z
           M 369.00,345.32
           C 379.21,344.21 387.91,345.16 395.91,352.33
             415.52,369.92 404.83,401.99 379.00,405.70
             348.72,410.06 332.38,370.97 356.00,351.33
             360.17,347.86 363.81,346.49 369.00,345.32 Z" />
</svg>
