<svg xmlns="http://www.w3.org/2000/svg"
  width="27" height="43" viewBox="0 0 438 512">
  <path id="box"
        fill="#ff6219"
        d="M 0.00,0.00
           C 0.00,0.00 0.00,440.00 0.00,440.00
             0.00,440.00 137.00,440.00 137.00,440.00
             139.44,440.00 142.73,439.87 145.00,440.74
             148.80,442.20 157.88,452.32 161.28,455.72
             161.28,455.72 198.84,493.07 198.84,493.07
             198.84,493.07 213.00,507.27 213.00,507.27
             214.39,508.55 217.03,511.41 219.00,511.41
             220.97,511.41 223.61,508.55 225.00,507.27
             225.00,507.27 239.28,493.07 239.28,493.07
             239.28,493.07 276.72,455.84 276.72,455.84
             276.72,455.84 284.72,447.83 284.72,447.83
             291.53,440.84 290.97,440.02 301.00,440.00
             301.00,440.00 438.00,440.00 438.00,440.00
             438.00,440.00 438.00,0.00 438.00,0.00
             438.00,0.00 0.00,0.00 0.00,0.00 Z" />
      <path id="s_path"
        fill="white"
        d="M 242.67,61.00
           C 242.67,61.00 306.05,61.00 306.05,61.00
             306.05,61.00 306.05,260.80 306.05,260.80
             306.05,286.91 303.75,307.01 299.17,321.08
             293.02,339.45 281.84,354.19 265.66,365.31
             249.47,376.44 228.12,382.00 201.62,382.00
             170.54,382.00 146.62,373.19 129.86,355.56
             113.11,337.94 104.66,312.09 104.52,278.00
             104.52,278.00 164.47,272.00 164.47,272.00
             165.19,290.30 167.84,303.23 172.42,310.78
             179.30,322.26 189.75,328.00 203.78,328.00
             217.97,328.00 227.99,323.94 233.86,315.81
             239.73,307.69 242.67,290.83 242.67,265.23
             242.67,265.23 242.67,61.00 242.67,61.00 Z" />
</svg>
