<?xml version="1.0" encoding="UTF-8" standalone="no"?>
<!DOCTYPE svg PUBLIC "-//W3C//DTD SVG 20010904//EN"
              "http://www.w3.org/TR/2001/REC-SVG-20010904/DTD/svg10.dtd">

<svg xmlns="http://www.w3.org/2000/svg"
     width="27" height="43"
     viewBox="0 0 438 512">
   <path id="box"
        fill="white"
        stroke="#47484c"
        stroke-width="20"
        d="M 0.00,0.00
           C 0.00,0.00 0.00,440.00 0.00,440.00
             0.00,440.00 137.00,440.00 137.00,440.00
             139.44,440.00 142.73,439.87 145.00,440.74
             148.80,442.20 157.88,452.32 161.28,455.72
             161.28,455.72 198.84,493.07 198.84,493.07
             198.84,493.07 213.00,507.27 213.00,507.27
             214.39,508.55 217.03,511.41 219.00,511.41
             220.97,511.41 223.61,508.55 225.00,507.27
             225.00,507.27 239.28,493.07 239.28,493.07
             239.28,493.07 276.72,455.84 276.72,455.84
             276.72,455.84 284.72,447.83 284.72,447.83
             291.53,440.84 290.97,440.02 301.00,440.00
             301.00,440.00 438.00,440.00 438.00,440.00
             438.00,440.00 438.00,0.00 438.00,0.00
             438.00,0.00 0.00,0.00 0.00,0.00 Z" />
    <path id="c_path" fill="#47484c"
        d="M 76.00,257.00
           C 65.12,257.00 49.53,254.48 41.19,262.44
             34.00,269.30 36.00,280.80 36.00,290.00
             36.00,290.00 36.00,360.00 36.00,360.00
             36.00,360.00 56.00,360.00 56.00,360.00
             56.00,373.41 52.31,394.12 69.00,399.35
             71.41,400.11 74.47,400.00 77.00,400.00
             77.00,400.00 120.00,400.00 120.00,400.00
             132.48,399.83 137.98,391.64 138.00,380.00
             138.00,380.00 138.00,360.00 138.00,360.00
             138.00,360.00 159.00,360.00 159.00,360.00
             159.00,360.00 159.00,280.00 159.00,280.00
             158.98,265.79 152.98,257.07 138.00,257.00
             138.00,257.00 119.00,257.00 119.00,257.00
             119.00,257.00 119.00,117.00 119.00,117.00
             119.03,96.06 135.64,77.51 157.00,77.01
             185.29,76.36 197.96,99.77 198.00,125.00
             198.00,125.00 198.00,323.00 198.00,323.00
             198.01,332.47 200.30,343.38 204.23,352.00
             211.19,367.26 222.41,380.89 237.00,389.53
             245.50,394.56 260.06,399.88 270.00,400.00
             270.00,400.00 289.00,400.00 289.00,400.00
             298.70,399.95 315.92,394.01 324.00,388.87
             330.77,384.56 339.65,376.33 344.64,370.00
             354.44,357.56 361.98,338.99 362.00,323.00
             362.00,323.00 362.00,291.00 362.00,291.00
             362.00,291.00 362.00,177.00 362.00,177.00
             372.96,177.00 388.29,179.47 396.81,171.53
             403.99,164.85 402.00,153.10 402.00,144.00
             402.00,144.00 402.00,74.00 402.00,74.00
             402.00,74.00 382.00,74.00 382.00,74.00
             382.00,60.59 385.69,39.88 369.00,34.65
             366.59,33.89 363.53,34.00 361.00,34.00
             361.00,34.00 318.00,34.00 318.00,34.00
             305.52,34.17 300.02,42.36 300.00,54.00
             300.00,54.00 300.00,74.00 300.00,74.00
             300.00,74.00 279.00,74.00 279.00,74.00
             279.00,74.00 279.00,154.00 279.00,154.00
             279.02,168.21 285.02,176.93 300.00,177.00
             300.00,177.00 319.00,177.00 319.00,177.00
             319.00,177.00 319.00,317.00 319.00,317.00
             318.97,337.94 302.36,356.49 281.00,356.99
             252.71,357.64 240.04,334.23 240.00,309.00
             240.00,309.00 240.00,111.00 240.00,111.00
             239.99,101.53 237.70,90.62 233.77,82.00
             226.81,66.74 215.59,53.11 201.00,44.47
             192.50,39.44 177.94,34.12 168.00,34.00
             168.00,34.00 149.00,34.00 149.00,34.00
             138.55,34.05 133.28,36.61 124.00,40.57
             120.63,42.01 117.10,43.16 114.00,45.13
             107.23,49.44 98.35,57.67 93.36,64.00
             83.48,76.55 76.03,94.87 76.00,111.00
             76.00,111.00 76.00,143.00 76.00,143.00
             76.00,143.00 76.00,257.00 76.00,257.00 Z" />
   <!-- <path id="c_path"
        fill="white"
        d="M 294.53,260.00
           C 294.53,260.00 356.20,279.00 356.20,279.00
             346.74,313.50 331.02,339.12 309.03,355.88
             287.05,372.62 259.16,381.00 225.36,381.00
             183.54,381.00 149.16,366.70 122.23,338.11
             95.30,309.51 81.84,270.40 81.84,220.80
             81.84,168.33 95.38,127.58 122.45,98.55
             149.52,69.52 185.12,55.00 229.23,55.00
             267.75,55.00 299.05,66.37 323.11,89.09
             337.43,102.53 348.18,121.84 355.34,147.00
             355.34,147.00 292.39,162.00 292.39,162.00
             288.67,145.62 280.90,132.70 269.08,123.22
             257.27,113.74 242.91,109.00 226.00,109.00
             202.66,109.00 183.71,117.42 169.17,134.25
             154.64,151.09 147.38,178.36 147.38,216.06
             147.38,256.06 154.54,284.55 168.86,301.53
             183.18,318.51 201.80,327.00 224.72,327.00
             241.61,327.00 256.14,321.62 268.31,310.84
             280.49,300.07 289.23,283.12 294.53,260.00 Z" /> -->
</svg>
