<svg xmlns="http://www.w3.org/2000/svg"
width="27" height="43"     viewBox="0 0 400 400">
  <path id="Selection"
        fill="#47484c"
        d="M 188.00,23.42
           C 167.87,26.34 153.81,29.86 136.00,40.45
             84.56,71.05 65.00,131.89 81.72,188.00
             93.18,226.44 121.46,256.05 145.58,287.00
             163.91,310.53 175.54,328.63 185.00,357.00
             187.63,364.89 190.17,377.73 201.00,376.77
             210.47,375.94 212.84,363.47 215.33,356.00
             223.86,330.43 233.37,315.63 249.15,294.00
             280.99,250.36 318.48,218.47 323.08,161.00
             323.08,161.00 324.00,150.00 324.00,150.00
             324.11,125.96 318.93,103.80 306.55,83.00
             282.78,43.05 234.62,17.75 188.00,23.42 Z" />
   <path id="Selection #1"
        fill="#47484c"
        d="M 188.00,30.21
           C 177.62,31.93 170.14,32.98 160.00,36.35
             128.34,46.91 102.50,71.41 89.43,102.00
             61.78,166.65 96.55,243.74 165.00,263.14
             173.44,265.53 185.27,267.89 194.00,268.00
             214.79,268.24 233.23,265.14 252.00,255.75
             263.40,250.05 276.19,241.26 284.91,232.00
             329.09,185.11 329.54,109.67 282.99,64.04
             272.65,53.91 258.39,44.57 245.00,39.01
             233.07,34.06 215.92,30.06 203.00,30.21
             203.00,30.21 188.00,30.21 188.00,30.21 Z" />
  <path id="Path #3"
        fill="white"
        d="M 250.69,172.00
           C 250.69,172.00 285.72,183.00 285.72,183.00
             280.34,202.62 271.41,217.19 258.92,226.72
             246.43,236.24 230.58,241.00 211.38,241.00
             187.61,241.00 168.08,232.89 152.78,216.66
             137.49,200.43 129.84,178.24 129.84,150.09
             129.84,120.31 137.53,97.19 152.91,80.72
             168.29,64.24 188.52,56.00 213.58,56.00
             235.47,56.00 253.25,62.42 266.92,75.27
             275.05,82.87 281.16,93.78 285.23,108.00
             285.23,108.00 249.47,117.00 249.47,117.00
             247.35,107.73 242.94,100.41 236.22,95.05
             229.51,89.68 221.35,87.00 211.75,87.00
             198.49,87.00 187.73,91.75 179.47,101.25
             171.21,110.75 167.08,126.14 167.08,147.41
             167.08,169.98 171.14,186.06 179.28,195.64
             187.41,205.21 197.99,210.00 211.02,210.00
             220.62,210.00 228.88,206.95 235.80,200.84
             242.71,194.73 247.68,185.12 250.69,172.00 Z" />
</svg>
