<?xml version="1.0" encoding="UTF-8" standalone="no"?>
<!DOCTYPE svg PUBLIC "-//W3C//DTD SVG 20010904//EN"
              "http://www.w3.org/TR/2001/REC-SVG-20010904/DTD/svg10.dtd">

<svg xmlns="http://www.w3.org/2000/svg"
     width="27" height="43"
     viewBox="0 0 438 512">
   <path id="box"
        fill="#47484c"
        d="M 0.00,0.00
           C 0.00,0.00 0.00,440.00 0.00,440.00
             0.00,440.00 137.00,440.00 137.00,440.00
             139.44,440.00 142.73,439.87 145.00,440.74
             148.80,442.20 157.88,452.32 161.28,455.72
             161.28,455.72 198.84,493.07 198.84,493.07
             198.84,493.07 213.00,507.27 213.00,507.27
             214.39,508.55 217.03,511.41 219.00,511.41
             220.97,511.41 223.61,508.55 225.00,507.27
             225.00,507.27 239.28,493.07 239.28,493.07
             239.28,493.07 276.72,455.84 276.72,455.84
             276.72,455.84 284.72,447.83 284.72,447.83
             291.53,440.84 290.97,440.02 301.00,440.00
             301.00,440.00 438.00,440.00 438.00,440.00
             438.00,440.00 438.00,0.00 438.00,0.00
             438.00,0.00 0.00,0.00 0.00,0.00 Z" />
   <path id="c_path"
        fill="white"
        d="M 294.53,260.00
           C 294.53,260.00 356.20,279.00 356.20,279.00
             346.74,313.50 331.02,339.12 309.03,355.88
             287.05,372.62 259.16,381.00 225.36,381.00
             183.54,381.00 149.16,366.70 122.23,338.11
             95.30,309.51 81.84,270.40 81.84,220.80
             81.84,168.33 95.38,127.58 122.45,98.55
             149.52,69.52 185.12,55.00 229.23,55.00
             267.75,55.00 299.05,66.37 323.11,89.09
             337.43,102.53 348.18,121.84 355.34,147.00
             355.34,147.00 292.39,162.00 292.39,162.00
             288.67,145.62 280.90,132.70 269.08,123.22
             257.27,113.74 242.91,109.00 226.00,109.00
             202.66,109.00 183.71,117.42 169.17,134.25
             154.64,151.09 147.38,178.36 147.38,216.06
             147.38,256.06 154.54,284.55 168.86,301.53
             183.18,318.51 201.80,327.00 224.72,327.00
             241.61,327.00 256.14,321.62 268.31,310.84
             280.49,300.07 289.23,283.12 294.53,260.00 Z" />
</svg>
