<svg xmlns="http://www.w3.org/2000/svg"
  width="27" height="43" viewBox="0 0 438 512">
  <path id="box"
        fill="#e24c4b"
        d="M 0.00,0.00
           C 0.00,0.00 0.00,440.00 0.00,440.00
             0.00,440.00 137.00,440.00 137.00,440.00
             139.44,440.00 142.73,439.87 145.00,440.74
             148.80,442.20 157.88,452.32 161.28,455.72
             161.28,455.72 198.84,493.07 198.84,493.07
             198.84,493.07 213.00,507.27 213.00,507.27
             214.39,508.55 217.03,511.41 219.00,511.41
             220.97,511.41 223.61,508.55 225.00,507.27
             225.00,507.27 239.28,493.07 239.28,493.07
             239.28,493.07 276.72,455.84 276.72,455.84
             276.72,455.84 284.72,447.83 284.72,447.83
             291.53,440.84 290.97,440.02 301.00,440.00
             301.00,440.00 438.00,440.00 438.00,440.00
             438.00,440.00 438.00,0.00 438.00,0.00
             438.00,0.00 0.00,0.00 0.00,0.00 Z" />
      <path id="s_path"
        fill="white"
         d="M 67.12,220.44
           C 67.12,188.23 71.92,161.20 81.52,139.34
             88.68,123.24 98.46,108.79 110.84,95.98
             123.23,83.18 136.80,73.70 151.56,67.52
             171.18,59.17 193.80,55.00 219.45,55.00
             265.85,55.00 302.97,69.45 330.83,98.36
             358.69,127.27 372.62,167.46 372.62,218.94
             372.62,269.98 358.80,309.92 331.16,338.75
             303.52,367.59 266.57,382.00 220.30,382.00
             173.46,382.00 136.22,367.66 108.58,338.97
             80.94,310.28 67.12,270.77 67.12,220.44 Z
           M 132.66,218.28
           C 132.66,254.28 140.89,281.57 157.36,300.14
             173.83,318.71 194.74,328.00 220.09,328.00
             245.45,328.00 266.25,318.79 282.50,300.36
             298.76,281.92 306.89,254.28 306.89,217.42
             306.89,181.00 298.97,153.82 283.14,135.89
             267.32,117.96 246.30,109.00 220.09,109.00
             193.88,109.00 172.76,118.07 156.72,136.22
             140.68,154.36 132.66,181.71 132.66,218.28 Z" />
</svg>
