<svg xmlns="http://www.w3.org/2000/svg"
     width="30" height="46"
     viewBox="0 0 438 512">
   <path id="pin"
        fill="#ffc005"
        d="M 201.54,6.60
           C 173.07,10.72 153.17,15.69 127.98,30.65
             55.22,73.87 27.55,159.80 51.20,239.05
             67.41,293.35 107.42,335.17 141.53,378.88
             167.46,412.11 183.92,437.69 197.29,477.75
             201.01,488.90 204.60,507.02 219.93,505.68
             233.32,504.51 236.68,486.89 240.20,476.34
             252.26,440.22 265.71,419.32 288.04,388.77
             333.08,327.13 386.11,282.09 392.62,200.92
             392.62,200.92 393.91,185.38 393.91,185.38
             394.07,151.43 386.74,120.13 369.23,90.75
             335.61,34.32 267.48,-1.42 201.54,6.60 Z" />
  <path id="Path #1"
        fill="white"
        d="M 88.34,184.17
           C 88.34,142.18 100.06,109.49 123.50,86.09
             146.94,62.70 179.57,51.00 221.41,51.00
             264.30,51.00 297.35,62.50 320.55,85.48
             343.75,108.46 355.36,140.66 355.36,182.06
             355.36,212.12 350.29,236.78 340.16,256.03
             330.02,275.27 315.37,290.25 296.20,300.95
             277.05,311.65 253.17,317.00 224.58,317.00
             195.52,317.00 171.46,312.38 152.42,303.14
             133.38,293.90 117.94,279.28 106.09,259.28
             94.26,239.27 88.34,214.23 88.34,184.17 Z
           M 167.98,184.17
           C 167.98,210.08 172.82,228.70 182.48,240.02
             192.15,251.34 205.30,257.00 221.95,257.00
             239.05,257.00 252.30,251.46 261.67,240.38
             271.05,229.28 275.73,209.38 275.73,180.67
             275.73,156.52 270.84,138.87 261.05,127.72
             251.27,116.57 238.00,111.00 221.25,111.00
             205.19,111.00 192.29,116.66 182.56,127.98
             172.84,139.31 167.98,158.04 167.98,184.17 Z" />
</svg>
