<svg xmlns="http://www.w3.org/2000/svg"
  width="27" height="43" viewBox="0 0 438 512">
  <path id="box"
    fill="white"
    stroke="#e24c4b"
    stroke-width="20"
    d="M 0.00,0.00
        C 0.00,0.00 0.00,440.00 0.00,440.00
          0.00,440.00 137.00,440.00 137.00,440.00
          139.44,440.00 142.73,439.87 145.00,440.74
          148.80,442.20 157.88,452.32 161.28,455.72
          161.28,455.72 198.84,493.07 198.84,493.07
          198.84,493.07 213.00,507.27 213.00,507.27
          214.39,508.55 217.03,511.41 219.00,511.41
          220.97,511.41 223.61,508.55 225.00,507.27
          225.00,507.27 239.28,493.07 239.28,493.07
          239.28,493.07 276.72,455.84 276.72,455.84
          276.72,455.84 284.72,447.83 284.72,447.83
          291.53,440.84 290.97,440.02 301.00,440.00
          301.00,440.00 438.00,440.00 438.00,440.00
          438.00,440.00 438.00,0.00 438.00,0.00
          438.00,0.00 0.00,0.00 0.00,0.00 Z" />
    <path id="s_path"
    fill="#e24c4b"
    d="M 0.00,128.00
        C 0.00,128.00 0.00,319.00 0.00,319.00
          0.00,319.00 438.00,319.00 438.00,319.00
          438.00,319.00 438.00,128.00 438.00,128.00
          438.00,128.00 0.00,128.00 0.00,128.00 Z" />
</svg>
