<?xml version="1.0" encoding="UTF-8" standalone="no"?>
<!DOCTYPE svg PUBLIC "-//W3C//DTD SVG 20010904//EN"
              "http://www.w3.org/TR/2001/REC-SVG-20010904/DTD/svg10.dtd">

<svg xmlns="http://www.w3.org/2000/svg"
     width="30" height="46"
     viewBox="0 0 438 512">
   <path id="pin"
        fill="#0047ab"
        d="M 201.54,6.60
           C 173.07,10.72 153.17,15.69 127.98,30.65
             55.22,73.87 27.55,159.80 51.20,239.05
             67.41,293.35 107.42,335.17 141.53,378.88
             167.46,412.11 183.92,437.69 197.29,477.75
             201.01,488.90 204.60,507.02 219.93,505.68
             233.32,504.51 236.68,486.89 240.20,476.34
             252.26,440.22 265.71,419.32 288.04,388.77
             333.08,327.13 386.11,282.09 392.62,200.92
             392.62,200.92 393.91,185.38 393.91,185.38
             394.07,151.43 386.74,120.13 369.23,90.75
             335.61,34.32 267.48,-1.42 201.54,6.60 Z" />
   <path id="Path"
        fill="white"
        d="M 122.39,59.67
           C 122.39,59.67 238.60,59.67 238.60,59.67
             261.50,59.67 280.00,62.78 294.10,68.99
             308.21,75.20 319.88,84.10 329.09,95.71
             338.29,107.32 344.97,120.84 349.11,136.25
             353.25,151.66 355.32,167.98 355.32,185.22
             355.32,212.24 352.24,233.19 346.08,248.08
             339.92,262.97 331.38,275.44 320.45,285.51
             309.51,295.57 297.77,302.27 285.22,305.59
             268.06,310.20 252.53,312.50 238.60,312.50
             238.60,312.50 122.39,312.50 122.39,312.50
             122.39,312.50 122.39,59.67 122.39,59.67 Z
           M 200.61,118.99
           C 200.61,118.99 200.61,253.18 200.61,253.18
             200.61,253.18 219.77,253.18 219.77,253.18
             236.11,253.18 247.74,251.42 254.65,247.90
             261.56,244.39 266.96,238.25 270.87,229.47
             274.79,220.71 276.75,206.49 276.75,186.84
             276.75,160.83 272.37,143.02 263.62,133.41
             254.88,123.80 240.38,118.99 220.12,118.99
             220.12,118.99 200.61,118.99 200.61,118.99 Z" />
</svg>
