<svg xmlns="http://www.w3.org/2000/svg"
width="27" height="43"     viewBox="0 0 400 400">
  <path id="Selection"
        fill="#ffc005"
        d="M 188.00,23.42
           C 167.87,26.34 153.81,29.86 136.00,40.45
             84.56,71.05 65.00,131.89 81.72,188.00
             93.18,226.44 121.46,256.05 145.58,287.00
             163.91,310.53 175.54,328.63 185.00,357.00
             187.63,364.89 190.17,377.73 201.00,376.77
             210.47,375.94 212.84,363.47 215.33,356.00
             223.86,330.43 233.37,315.63 249.15,294.00
             280.99,250.36 318.48,218.47 323.08,161.00
             323.08,161.00 324.00,150.00 324.00,150.00
             324.11,125.96 318.93,103.80 306.55,83.00
             282.78,43.05 234.62,17.75 188.00,23.42 Z" />
   <path id="Selection #1"
        fill="#e6ad05"
        d="M 188.00,30.21
           C 177.62,31.93 170.14,32.98 160.00,36.35
             128.34,46.91 102.50,71.41 89.43,102.00
             61.78,166.65 96.55,243.74 165.00,263.14
             173.44,265.53 185.27,267.89 194.00,268.00
             214.79,268.24 233.23,265.14 252.00,255.75
             263.40,250.05 276.19,241.26 284.91,232.00
             329.09,185.11 329.54,109.67 282.99,64.04
             272.65,53.91 258.39,44.57 245.00,39.01
             233.07,34.06 215.92,30.06 203.00,30.21
             203.00,30.21 188.00,30.21 188.00,30.21 Z" />
   <path id="Path"
        fill="white"
        d="M 132.05,61.00
           C 132.05,61.00 214.20,61.00 214.20,61.00
             230.39,61.00 243.47,63.20 253.44,67.59
             263.41,71.99 271.66,78.30 278.17,86.52
             284.68,94.73 289.40,104.30 292.33,115.22
             295.25,126.12 296.72,137.68 296.72,149.89
             296.72,169.02 294.54,183.85 290.19,194.39
             285.83,204.93 279.79,213.77 272.06,220.89
             264.33,228.02 256.03,232.76 247.16,235.11
             235.03,238.37 224.05,240.00 214.20,240.00
             214.20,240.00 132.05,240.00 132.05,240.00
             132.05,240.00 132.05,61.00 132.05,61.00 Z
           M 187.34,103.00
           C 187.34,103.00 187.34,198.00 187.34,198.00
             187.34,198.00 200.89,198.00 200.89,198.00
             212.44,198.00 220.66,196.76 225.55,194.27
             230.43,191.78 234.25,187.43 237.02,181.22
             239.79,175.01 241.17,164.95 241.17,151.03
             241.17,132.62 238.08,120.01 231.89,113.20
             225.71,106.40 215.46,103.00 201.14,103.00
             201.14,103.00 187.34,103.00 187.34,103.00 Z" />
</svg>
