<svg xmlns="http://www.w3.org/2000/svg"
width="27" height="43"     viewBox="0 0 438 512">
  <path id="Selection #1"
        fill="#ffc005"
        d="M 0.00,0.00
           C 0.00,0.00 0.00,440.00 0.00,440.00
             0.00,440.00 137.00,440.00 137.00,440.00
             139.44,440.00 142.73,439.87 145.00,440.74
             148.80,442.20 157.88,452.32 161.28,455.72
             161.28,455.72 198.84,493.07 198.84,493.07
             198.84,493.07 213.00,507.27 213.00,507.27
             214.39,508.55 217.03,511.41 219.00,511.41
             220.97,511.41 223.61,508.55 225.00,507.27
             225.00,507.27 239.28,493.07 239.28,493.07
             239.28,493.07 276.72,455.84 276.72,455.84
             276.72,455.84 284.72,447.83 284.72,447.83
             291.53,440.84 290.97,440.02 301.00,440.00
             301.00,440.00 438.00,440.00 438.00,440.00
             438.00,440.00 438.00,0.00 438.00,0.00
             438.00,0.00 0.00,0.00 0.00,0.00 Z" />
               <path id="Path"
        fill="white"
        d="M 69.56,44.00
           C 69.56,44.00 227.30,44.00 227.30,44.00
             258.39,44.00 283.50,48.23 302.64,56.67
             321.79,65.12 337.61,77.25 350.11,93.05
             362.61,108.85 371.67,127.23 377.30,148.19
             382.92,169.15 385.73,191.36 385.73,214.83
             385.73,251.59 381.55,280.10 373.19,300.36
             364.83,320.62 353.23,337.59 338.39,351.28
             323.55,364.97 307.61,374.08 290.58,378.61
             267.30,384.87 246.20,388.00 227.30,388.00
             227.30,388.00 69.56,388.00 69.56,388.00
             69.56,388.00 69.56,44.00 69.56,44.00 Z
           M 175.73,122.00
           C 175.73,122.00 175.73,310.00 175.73,310.00
             175.73,310.00 201.75,310.00 201.75,310.00
             223.94,310.00 239.72,307.54 249.09,302.61
             258.47,297.68 265.81,289.08 271.12,276.80
             276.44,264.51 279.09,244.59 279.09,217.06
             279.09,180.61 273.16,155.65 261.28,142.19
             249.41,128.73 229.72,122.00 202.22,122.00
             202.22,122.00 175.73,122.00 175.73,122.00 Z" />
</svg>
