<svg xmlns="http://www.w3.org/2000/svg"
  width="27" height="43" viewBox="0 0 438 512">
  <path id="box"
        fill="#ffc005"
        d="M 0.00,0.00
           C 0.00,0.00 0.00,440.00 0.00,440.00
             0.00,440.00 137.00,440.00 137.00,440.00
             139.44,440.00 142.73,439.87 145.00,440.74
             148.80,442.20 157.88,452.32 161.28,455.72
             161.28,455.72 198.84,493.07 198.84,493.07
             198.84,493.07 213.00,507.27 213.00,507.27
             214.39,508.55 217.03,511.41 219.00,511.41
             220.97,511.41 223.61,508.55 225.00,507.27
             225.00,507.27 239.28,493.07 239.28,493.07
             239.28,493.07 276.72,455.84 276.72,455.84
             276.72,455.84 284.72,447.83 284.72,447.83
             291.53,440.84 290.97,440.02 301.00,440.00
             301.00,440.00 438.00,440.00 438.00,440.00
             438.00,440.00 438.00,0.00 438.00,0.00
             438.00,0.00 0.00,0.00 0.00,0.00 Z" />
      <path id="s_path"
        fill="white"
        d="M 92.91,275.00
           C 92.91,275.00 154.78,269.00 154.78,269.00
             158.51,289.29 166.07,304.20 177.45,313.72
             188.84,323.24 204.20,328.00 223.53,328.00
             244.01,328.00 259.44,323.73 269.83,315.20
             280.21,306.67 285.41,296.70 285.41,285.28
             285.41,277.95 283.22,271.71 278.84,266.56
             274.48,261.41 266.85,256.93 255.97,253.12
             248.52,250.52 231.55,245.89 205.05,239.22
             170.95,230.67 147.03,220.17 133.28,207.73
             113.95,190.23 104.28,168.90 104.28,143.73
             104.28,127.54 108.83,112.39 117.92,98.28
             127.02,84.18 140.12,73.44 157.23,66.06
             174.36,58.69 195.02,55.00 219.22,55.00
             258.75,55.00 288.50,63.81 308.48,81.44
             328.47,99.06 338.97,122.59 339.97,152.00
             339.97,152.00 276.38,154.00 276.38,154.00
             273.66,137.66 267.82,125.91 258.86,118.75
             249.91,111.59 236.49,108.00 218.59,108.00
             200.11,108.00 185.64,111.84 175.19,119.50
             168.46,124.43 165.09,131.02 165.09,139.27
             165.09,146.79 168.24,153.23 174.55,158.58
             182.57,165.38 202.05,172.48 232.98,179.88
             263.92,187.26 286.80,194.86 301.62,202.66
             316.45,210.45 328.05,221.11 336.42,234.64
             344.80,248.16 349.00,264.87 349.00,284.77
             349.00,302.80 343.98,319.68 333.95,335.42
             323.93,351.16 309.75,362.86 291.42,370.52
             273.09,378.17 250.24,382.00 222.89,382.00
             183.07,382.00 152.48,372.89 131.14,354.67
             109.80,336.45 97.06,309.89 92.91,275.00 Z" />
</svg>
