<svg xmlns="http://www.w3.org/2000/svg"
     width="30" height="46"
     viewBox="0 0 438 512">
   <path id="pin"
        fill="#ffc005"
        d="M 201.54,6.60
           C 173.07,10.72 153.17,15.69 127.98,30.65
             55.22,73.87 27.55,159.80 51.20,239.05
             67.41,293.35 107.42,335.17 141.53,378.88
             167.46,412.11 183.92,437.69 197.29,477.75
             201.01,488.90 204.60,507.02 219.93,505.68
             233.32,504.51 236.68,486.89 240.20,476.34
             252.26,440.22 265.71,419.32 288.04,388.77
             333.08,327.13 386.11,282.09 392.62,200.92
             392.62,200.92 393.91,185.38 393.91,185.38
             394.07,151.43 386.74,120.13 369.23,90.75
             335.61,34.32 267.48,-1.42 201.54,6.60 Z" />
  <path id="Path #1"
        fill="white"
        d="M 115.29,226.34
           C 115.29,226.34 165.02,222.10 165.02,222.10
             168.01,238.63 174.09,250.76 183.24,258.52
             192.39,266.26 204.73,270.12 220.28,270.12
             236.73,270.12 249.13,266.69 257.48,259.82
             265.83,252.95 270.01,244.92 270.01,235.72
             270.01,229.82 268.25,224.79 264.73,220.65
             261.22,216.50 255.10,212.89 246.36,209.83
             240.36,207.82 226.72,204.23 205.43,199.06
             178.03,192.44 158.81,184.18 147.76,174.28
             132.21,160.33 124.45,143.34 124.45,123.30
             124.45,110.40 128.10,98.33 135.41,87.10
             142.71,75.87 153.25,67.31 167.01,61.44
             180.77,55.56 197.38,52.61 216.83,52.61
             248.60,52.61 272.51,59.80 288.57,74.17
             304.63,88.53 313.07,107.71 313.88,131.71
             313.88,131.71 262.76,133.12 262.76,133.12
             260.58,120.07 255.89,110.69 248.68,104.98
             241.49,99.26 230.70,96.40 216.30,96.40
             201.46,96.40 189.83,99.44 181.42,105.51
             176.01,109.41 173.31,114.62 173.31,121.16
             173.31,127.12 175.84,132.22 180.92,136.47
             187.35,141.86 203.01,147.41 227.88,153.14
             252.75,158.86 271.14,164.83 283.05,171.06
             294.97,177.27 304.29,185.75 311.03,196.52
             317.76,207.29 321.13,220.60 321.13,236.45
             321.13,250.81 317.10,264.26 309.04,276.81
             300.98,289.35 289.58,298.67 274.85,304.77
             260.11,310.86 241.75,313.91 219.77,313.91
             187.77,313.91 163.19,306.46 146.04,291.55
             128.89,276.63 118.64,254.90 115.29,226.34 Z" />
</svg>
