<svg xmlns="http://www.w3.org/2000/svg"
width="27" height="43"     viewBox="0 0 400 400">
  <path id="Selection"
        fill="#e24c4b"
        d="M 188.00,23.42
           C 167.87,26.34 153.81,29.86 136.00,40.45
             84.56,71.05 65.00,131.89 81.72,188.00
             93.18,226.44 121.46,256.05 145.58,287.00
             163.91,310.53 175.54,328.63 185.00,357.00
             187.63,364.89 190.17,377.73 201.00,376.77
             210.47,375.94 212.84,363.47 215.33,356.00
             223.86,330.43 233.37,315.63 249.15,294.00
             280.99,250.36 318.48,218.47 323.08,161.00
             323.08,161.00 324.00,150.00 324.00,150.00
             324.11,125.96 318.93,103.80 306.55,83.00
             282.78,43.05 234.62,17.75 188.00,23.42 Z" />
   <path id="Selection #1"
        fill="#e24c4b"
        d="M 188.00,30.21
           C 177.62,31.93 170.14,32.98 160.00,36.35
             128.34,46.91 102.50,71.41 89.43,102.00
             61.78,166.65 96.55,243.74 165.00,263.14
             173.44,265.53 185.27,267.89 194.00,268.00
             214.79,268.24 233.23,265.14 252.00,255.75
             263.40,250.05 276.19,241.26 284.91,232.00
             329.09,185.11 329.54,109.67 282.99,64.04
             272.65,53.91 258.39,44.57 245.00,39.01
             233.07,34.06 215.92,30.06 203.00,30.21
             203.00,30.21 188.00,30.21 188.00,30.21 Z" />
   <path id="Path"
        fill="white"
       d="M 127.03,179.00
           C 127.03,179.00 162.19,176.00 162.19,176.00
             164.30,187.70 168.59,196.29 175.06,201.78
             181.53,207.26 190.26,210.00 201.25,210.00
             212.88,210.00 221.65,207.57 227.55,202.70
             233.45,197.84 236.41,192.15 236.41,185.64
             236.41,181.46 235.16,177.91 232.67,174.97
             230.19,172.03 225.86,169.48 219.69,167.31
             215.45,165.89 205.80,163.34 190.75,159.69
             171.38,155.00 157.80,149.15 149.98,142.14
             138.99,132.27 133.50,120.23 133.50,106.05
             133.50,96.91 136.08,88.37 141.25,80.42
             146.41,72.46 153.86,66.41 163.59,62.25
             173.32,58.09 185.06,56.00 198.81,56.00
             221.27,56.00 238.18,61.09 249.53,71.27
             260.88,81.43 266.85,95.01 267.42,112.00
             267.42,112.00 231.28,113.00 231.28,113.00
             229.74,103.76 226.42,97.12 221.33,93.08
             216.24,89.03 208.61,87.00 198.44,87.00
             187.95,87.00 179.73,89.15 173.78,93.45
             169.96,96.21 168.05,99.91 168.05,104.53
             168.05,108.75 169.84,112.37 173.42,115.38
             177.97,119.19 189.04,123.12 206.62,127.17
             224.21,131.23 237.21,135.45 245.62,139.86
             254.05,144.26 260.64,150.27 265.41,157.89
             270.16,165.52 272.55,174.94 272.55,186.16
             272.55,196.32 269.70,205.85 264.00,214.73
             258.30,223.61 250.24,230.21 239.83,234.53
             229.41,238.84 216.43,241.00 200.89,241.00
             178.27,241.00 160.89,235.73 148.77,225.17
             136.64,214.61 129.39,199.22 127.03,179.00 Z" />
</svg>
